<svg width="59" height="41" viewBox="0 0 59 41" fill="none" xmlns="http://www.w3.org/2000/svg">
<path d="M18.0835 26.3701L20.0497 21.4707L19.785 21.3724L18.0835 26.3701Z" fill="white"/>
<path d="M12.3059 25.2279C11.9376 25.2042 12.1227 23.3477 12.1468 23.121C12.2471 22.1829 12.6154 21.2714 13.211 20.5381C14.4897 18.9632 16.8944 18.3226 18.853 18.6806C19.9158 15.4576 20.6906 12.2367 21.4135 8.91853C21.6003 8.06024 21.7885 7.19794 22.1013 6.37675C22.2156 6.07729 22.35 5.7775 22.5699 5.54421C23.7413 4.3019 26.3179 4.60136 27.8132 4.93057C27.8132 4.93057 32.7995 5.92455 36.0221 7.29454C39.2446 8.66452 42.2817 10.0502 43.8332 11.5636C44.5658 12.2781 45.2787 13.0963 45.0321 14.2016C44.9017 14.7854 44.5748 15.3039 44.2537 15.8086C42.878 17.971 41.2032 20.1308 40.2837 22.5391C40.1902 22.7841 38.8971 25.2547 38.9906 25.3353C39.0327 25.3713 41.1333 27.1798 41.4265 28.0067C41.7226 28.8416 41.7543 29.2129 41.7543 29.2129L53.8803 30.8296C54.5875 28.0592 54.8238 25.1193 54.5016 22.1096C53.0504 8.55857 40.8887 -1.25022 27.3376 0.200975C14.7497 1.54923 5.40284 12.1411 5.29956 24.5017C6.56326 24.633 12.2594 25.225 12.3059 25.2279" fill="white"/>
<path d="M19.1653 21.0676C19.2097 21.1261 19.2625 21.1949 19.3143 21.2635L17.7535 25.8841C17.6492 25.6766 17.5617 25.4631 17.4888 25.2441L19.1653 21.0676ZM15.1339 26.0373L18.0556 26.4103C17.9464 26.2395 17.8444 26.0654 17.7545 25.8862L19.4995 21.5386C19.5042 21.5497 19.5095 21.5613 19.5075 21.566C19.5205 21.5403 19.5349 21.5116 19.5486 21.4838C19.6288 21.5971 19.7164 21.714 19.8177 21.8374C19.8768 21.9092 19.933 21.9707 19.9895 22.0346C19.9751 22.0547 19.9607 22.0744 19.947 22.0917C19.9721 22.1198 19.9955 22.1455 20.0195 22.1726L18.5453 26.4727L18.565 26.4754L20.2077 22.3805C20.2725 22.451 20.334 22.5183 20.3885 22.577L19.0229 26.5339L19.0627 26.5389L20.5723 22.7765C20.6335 22.8437 20.696 22.9093 20.7585 22.9751L19.5022 26.595L19.5606 26.6027L20.9397 23.1649C21.0035 23.2298 21.0697 23.2919 21.1348 23.3551L19.9824 26.6565L20.0583 26.6663L21.3157 23.5312C21.3822 23.5934 21.4507 23.6525 21.5182 23.713L20.4641 26.718L20.556 26.7298L21.7007 23.8758C21.7692 23.9349 21.839 23.9928 21.9086 24.0506L20.9467 26.7796L21.054 26.7932L22.0934 24.201C22.1639 24.2575 22.2344 24.3137 22.306 24.3688L21.4303 26.8414L21.5516 26.8568L22.4931 24.5085C22.5653 24.562 22.6362 24.6168 22.7094 24.6689L21.9149 26.9033L22.0493 26.9206L22.9002 24.7985C22.9731 24.8491 23.0459 24.8999 23.1198 24.9487L22.4002 26.9654L22.5469 26.9841L23.3136 25.0723C23.3875 25.1191 23.462 25.1653 23.5369 25.2107L22.8862 27.0276L23.0446 27.0476L23.7334 25.3297C23.8083 25.3735 23.8842 25.4149 23.9597 25.4571L23.3728 27.0897L23.5423 27.1111L24.1602 25.57C24.1706 25.5754 24.1803 25.5816 24.1906 25.587C24.2562 25.6221 24.3217 25.6559 24.3872 25.6903L23.8601 27.1518L24.0399 27.1749L24.5924 25.7969C24.6679 25.8361 24.7435 25.8741 24.819 25.9115L24.3481 27.214L24.5376 27.2384L25.0282 26.0152C25.1034 26.0519 25.1789 26.0894 25.2538 26.1251L24.8364 27.2765L25.0352 27.302L25.4667 26.225C27.3367 27.1001 29.0549 27.6489 30.198 27.9614L33.5579 28.3905C33.9657 26.8122 34.8106 23.5673 35.6114 20.6516C36.6328 16.9316 38.3096 13.19 38.5649 12.6285C38.4165 12.5925 38.2645 12.5546 38.1084 12.5156C37.8514 12.9533 37.4196 13.7338 36.953 14.7669C36.2097 16.4129 34.198 22.2826 34.198 22.2826C34.198 22.2826 34.6067 19.1508 35.1899 16.8498C35.6909 14.8725 36.5676 12.7358 36.8049 12.1723C35.699 11.8702 34.4433 11.5005 33.0208 11.051C31.0315 10.4223 29.0586 9.70374 27.184 8.78396C26.6515 8.52259 24.2882 7.47581 24.0897 6.58376C24.9921 7.21678 26.2912 7.79232 26.6876 7.98282C28.7872 8.99285 30.9871 9.802 33.2006 10.5206C38.5837 12.2679 41.844 13.0148 43.5084 13.1864C43.3644 13.3023 42.984 13.3538 42.332 13.3087C42.0275 13.7835 40.4737 16.2705 38.8016 20.0697C37.3901 23.2763 35.9543 26.9065 35.3387 28.4844C35.5041 28.4486 35.6655 28.4043 35.8203 28.349C37.5265 27.7412 37.853 27.3558 37.853 27.3558L37.2999 28.8688L40.2551 29.2461C40.089 28.3033 39.6869 27.3975 39.0813 26.6338C39.0101 26.544 38.1762 25.6883 38.2097 25.6047C38.2117 25.5998 38.2561 25.4888 39.1893 23.1576C40.1689 20.7101 43.0626 16.2752 43.0626 16.2752C43.0626 16.2752 44.1759 14.5694 44.1909 13.4568C44.206 12.3442 40.3494 10.3702 40.3494 10.3702C40.3494 10.3702 33.5706 6.88256 28.082 5.97614C26.3019 5.68236 23.5519 4.75289 22.6746 6.85816C21.7598 9.05267 21.4978 11.5837 20.9811 13.8902C20.7107 15.0971 20.3905 16.2943 19.9885 17.4644C19.6636 18.4093 19.3083 19.3978 18.7779 20.2482C18.7692 20.2625 18.7598 20.2773 18.7585 20.294C18.7568 20.3113 18.7642 20.328 18.7709 20.3441C18.8337 20.4888 18.9026 20.6291 18.9764 20.7675C18.9092 20.9543 18.7973 21.2686 18.7973 21.2686L18.805 21.2722L17.4814 25.2231C17.3514 24.8253 17.2749 24.4092 17.2762 23.9713C17.2782 23.0372 17.5844 22.0305 17.8972 21.1593C17.9524 21.0055 18.6847 19.424 18.8494 19.5276C18.684 19.4233 18.3247 19.448 18.1262 19.431C17.8825 19.4103 17.6372 19.4092 17.3935 19.4283C16.9266 19.4651 16.4634 19.575 16.0353 19.7665C15.1562 20.1603 14.4838 20.9016 14.2465 21.8428C13.8966 23.2304 14.3615 24.7852 15.1339 26.0373" fill="white"/>
<path d="M14.3673 25.938C14.3236 25.8695 14.2791 25.8017 14.2367 25.7321C12.6077 23.075 13.4308 21.439 14.1631 20.6409C13.5388 21.2411 13.1989 21.8746 13.1989 21.8746C13.1989 21.8746 12.482 23.3264 13.2905 25.8007L14.3673 25.938Z" fill="white"/>
<path d="M53.8922 31.7704C53.8922 31.7704 53.8905 32.3489 53.8066 32.6491C53.7224 32.9492 53.7224 32.9492 53.7224 32.9492C53.7224 32.9492 54.0266 32.2273 54.0596 32.0124C54.0924 31.797 53.8922 31.7704 53.8922 31.7704Z" fill="white"/>
<path d="M56.707 31.8C56.707 31.8 56.315 31.3285 55.5028 31.2516C54.6907 31.1747 53.933 32.3307 53.933 32.3307C53.933 32.3307 53.9691 32.1519 53.932 31.8916C53.8949 31.6313 53.7585 31.4892 53.7585 31.4892C53.6873 31.4153 54.3371 30.8475 54.4183 30.7944C54.6362 30.6513 54.8859 30.5621 55.1476 30.5527C56.0302 30.5216 56.7565 31.0894 56.9323 31.9484C56.9423 31.9978 56.9494 32.0477 56.953 32.0981C56.9778 32.4109 56.8949 32.7449 56.828 33.042C56.828 33.042 56.9661 32.4297 56.707 31.8ZM55.6756 33.8658C54.9674 34.0584 54.1663 33.5998 54.1663 33.5998C55.3798 34.2572 56.5229 33.4123 56.5229 33.4123C56.5229 33.4123 56.3842 33.6734 55.6756 33.8658V33.8658ZM10.516 26.5658C10.5083 26.4859 10.4966 26.4066 10.4853 26.3274L38.2292 29.9016C38.2312 29.9297 10.516 26.5658 10.516 26.5658ZM8.66541 26.3374C7.62063 26.2085 6.57552 26.0795 5.5304 25.9505C5.05881 25.8923 4.58722 25.8341 4.11563 25.7759C3.81583 25.7389 3.44785 25.7472 3.16844 25.6279C3.11596 25.6052 3.05647 25.5751 3.04478 25.519C3.03675 25.4805 3.05547 25.4401 3.08522 25.4143C3.20554 25.3091 3.75032 25.4598 3.90239 25.4792C4.3302 25.5344 4.75834 25.5895 5.18615 25.6446C6.22024 25.778 7.25465 25.911 8.28874 26.0444C8.82751 26.114 9.36595 26.183 9.90438 26.2526C9.91909 26.3327 9.93045 26.4137 9.94081 26.4945C9.93413 26.4444 8.74529 26.3471 8.66541 26.3374V26.3374ZM1.87833 25.4999C1.78475 25.4882 0.920115 25.4337 1.19719 25.1651C1.25935 25.1045 1.33088 25.1447 1.40574 25.157C1.55648 25.1827 1.70989 25.1968 1.86162 25.2165C1.98027 25.2315 2.41409 25.2221 2.59925 25.3211C2.65808 25.3525 2.69183 25.395 2.68247 25.4528C2.6417 25.6988 2.03275 25.519 1.87833 25.4999V25.4999ZM57.4905 31.5774C57.3257 31.5119 57.1549 31.4963 56.9901 31.5146C56.7933 31.0954 56.447 30.7452 55.9828 30.5607C55.0366 30.1847 53.9724 30.6313 53.5647 31.555L1.42112 24.894C1.03442 24.8445 0.681148 25.1179 0.631683 25.5046C0.590239 25.8308 0.778407 26.1336 1.07052 26.2499C1.12466 26.2713 1.18215 26.286 1.24231 26.294L53.5242 32.9728C53.7041 33.4547 54.0734 33.8639 54.5891 34.0687C55.3651 34.3768 56.2171 34.1283 56.7258 33.5216C57.2605 33.7298 57.8638 33.4684 58.076 32.9343C58.2889 32.398 58.0269 31.7904 57.4905 31.5774Z" fill="white"/>
<path d="M42.0709 31.2311C42.0709 31.2311 41.6267 33.1556 41.1825 34.4881C40.7387 35.8193 39.5559 37.1505 39.5542 37.1528C40.242 36.3788 41.1291 35.8765 41.7768 35.0292C42.4309 34.1737 42.9636 33.2255 43.3537 32.2215C43.5244 31.7819 43.8734 31.3133 43.2831 31.182C42.9352 31.1045 42.4355 31.2308 42.0709 31.2311" fill="white"/>
<path d="M38.7791 34.3627C38.6852 34.4974 38.5479 34.6969 38.3503 34.9335C38.1521 35.1689 37.9045 35.4513 37.5926 35.7497C37.2812 36.0475 36.9152 36.373 36.4817 36.6862C36.0502 37.0018 35.5622 37.3239 35.0078 37.598C34.7317 37.7367 34.4486 37.8834 34.1428 37.997C33.843 38.127 33.5282 38.2378 33.1996 38.3256C33.0362 38.373 32.8714 38.4212 32.7056 38.4694C32.5362 38.5041 32.3657 38.5388 32.1939 38.5735C32.0218 38.6076 31.8484 38.6421 31.6742 38.6765C31.4931 38.6922 31.3113 38.7079 31.1284 38.7237C30.9456 38.7387 30.7618 38.7534 30.5776 38.7684L30.0599 38.7648L29.5409 38.7597L29.476 38.7591L29.4155 38.7554L29.3818 38.7517L29.2468 38.738L28.9764 38.7096C28.6167 38.6648 28.2551 38.6314 27.9048 38.5448C27.5532 38.467 27.1983 38.4088 26.8607 38.2963C26.1746 38.111 25.5275 37.844 24.9176 37.5652C24.3053 37.2885 23.7448 36.9607 23.2304 36.6311C22.7133 36.3049 22.2528 35.9559 21.843 35.6193C21.0205 34.9489 20.4162 34.3045 20.0188 33.8373C19.6221 33.3678 19.4323 33.0729 19.4323 33.0729C19.4323 33.0729 19.4985 33.1298 19.6225 33.2364C19.7495 33.3376 19.9363 33.4864 20.1739 33.6756C20.6529 34.0462 21.3507 34.5532 22.22 35.0933C22.6559 35.3613 23.1375 35.6328 23.6525 35.9018C24.1689 36.1692 24.728 36.4169 25.3109 36.6515C25.8942 36.8861 26.5141 37.0759 27.1468 37.2417C27.4597 37.341 27.7869 37.3857 28.1104 37.4515C28.4333 37.5265 28.7641 37.5488 29.093 37.5837L29.3393 37.6133L29.4627 37.6287L29.4934 37.6328L29.5088 37.6347C29.5054 37.6345 29.5081 37.6347 29.5111 37.6351L29.5623 37.6364L30.081 37.6514L30.5964 37.6651L31.0699 37.6315C31.2274 37.6214 31.3845 37.6111 31.5405 37.601C31.6996 37.5786 31.858 37.5563 32.0155 37.5342C32.1732 37.5117 32.3303 37.4897 32.486 37.4673C32.6395 37.4318 32.7915 37.3968 32.9426 37.3617C33.093 37.3249 33.2451 37.2968 33.3915 37.2537C33.5365 37.2062 33.6809 37.1614 33.8253 37.1194C34.1164 37.0429 34.3891 36.9322 34.6572 36.8286C35.1913 36.6177 35.6839 36.3784 36.1308 36.1384C36.5743 35.8928 36.972 35.6458 37.3186 35.4142C37.6602 35.1762 37.9553 34.9603 38.1923 34.7732C38.4249 34.5817 38.6117 34.4319 38.7327 34.3222C38.852 34.211 38.9158 34.1515 38.9158 34.1515C38.9158 34.1515 38.8684 34.225 38.7791 34.3627V34.3627ZM40.9967 30.442C40.9229 30.3951 40.8313 30.3885 40.744 30.3831C40.3804 30.3611 36.9038 29.9262 36.7972 30.2284C36.5526 30.9232 36.2952 31.6167 36.0419 32.3096C36.0419 32.3096 34.454 35.2019 27.6452 33.079C26.1833 32.623 24.7845 31.9844 23.4724 31.1996L24.4924 28.6552L24.3434 28.6361L23.4242 31.1709C23.2999 31.0957 23.1732 31.0242 23.0506 30.9466L23.9948 28.5916L23.8561 28.574L23.0078 30.9205C22.8821 30.8407 22.7611 30.7544 22.6375 30.6719L23.4971 28.5282L23.3698 28.5119L22.6001 30.6468C22.4751 30.5629 22.3484 30.4817 22.2254 30.3948L22.9994 28.4647L22.8838 28.4496L22.1926 30.3731C22.067 30.2839 21.9453 30.1892 21.8216 30.0973L22.5018 28.4009L22.3988 28.3878L21.7939 30.0766C21.6689 29.9833 21.5422 29.8921 21.4189 29.7959L22.0041 28.3373L21.9142 28.3259L21.3958 29.7785C21.2702 29.6799 21.1485 29.576 21.0249 29.4743L21.5061 28.2738L21.4309 28.2642L21.0061 29.4586C20.8811 29.3558 20.7548 29.2541 20.6325 29.1482L21.0085 28.2103L20.9483 28.2023L20.6178 29.1358C20.597 29.118 20.5753 29.1013 20.5549 29.0837C20.4527 28.9941 20.3491 28.9029 20.2448 28.8099L20.5108 28.1464L20.4667 28.1408L20.2341 28.8002C20.1104 28.6903 19.9857 28.577 19.8611 28.462L20.0132 28.083L19.9861 28.0796L19.8541 28.4556C19.7294 28.3407 19.6051 28.2233 19.4817 28.1031C19.4817 28.1031 19.5152 28.0195 19.5068 28.0185L19.4784 28.0997C19.4456 28.0679 19.4142 28.0345 19.3818 28.0024C19.0914 27.7149 17.6472 27.7871 17.2388 27.7286C16.0352 27.5555 14.8507 27.3785 13.6292 27.3764C14.3009 28.9584 15.32 30.3484 16.182 31.8102C16.9948 33.1889 18.0924 34.4222 19.2759 35.4918C21.5476 37.5449 24.3704 39.1605 27.3855 39.7895C29.093 40.1454 31.0235 40.1565 32.8657 39.7771C35.3213 39.2709 37.6194 38.0703 39.0205 36.0666C40.0596 34.5806 40.5806 32.8043 41.0853 31.0625C41.1481 30.8463 41.1876 30.562 40.9967 30.442" fill="white"/>
</svg>
