<svg width="16" height="16" viewBox="0 0 16 16" fill="none" xmlns="http://www.w3.org/2000/svg">
<path d="M8.88279 7.85871L15.101 0.446551C15.2053 0.323371 15.1176 0.13623 14.9565 0.13623H13.0662C12.9549 0.13623 12.8483 0.185976 12.7748 0.271255L7.64624 6.38528L2.51766 0.271255C2.44659 0.185976 2.33999 0.13623 2.22629 0.13623H0.335939C0.174856 0.13623 0.0872085 0.323371 0.191438 0.446551L6.4097 7.85871L0.191438 15.2709C0.16809 15.2983 0.153111 15.3319 0.148279 15.3676C0.143448 15.4033 0.148966 15.4397 0.164181 15.4724C0.179395 15.505 0.203666 15.5327 0.234111 15.552C0.264556 15.5712 0.299898 15.5814 0.335939 15.5812H2.22629C2.33763 15.5812 2.44422 15.5315 2.51766 15.4462L7.64624 9.33215L12.7748 15.4462C12.8459 15.5315 12.9525 15.5812 13.0662 15.5812H14.9565C15.1176 15.5812 15.2053 15.3941 15.101 15.2709L8.88279 7.85871Z" fill="white"/>
</svg>
