<svg width="76" height="63" viewBox="0 0 76 63" fill="none" xmlns="http://www.w3.org/2000/svg">
<rect x="2" y="2" width="72" height="59" rx="3" stroke="#909499" stroke-width="4"/>
<path d="M18.5235 37.5125L3.6333 62.6816H34.5719L19.681 37.5125C19.4201 37.072 18.7843 37.072 18.5235 37.5125Z" fill="#909499"/>
<path d="M48.395 24.1185L25.5801 62.6816H72.3666L49.5525 24.1185C49.2916 23.678 48.6558 23.678 48.395 24.1185Z" fill="#909499"/>
<path d="M40.377 18.3123C40.377 22.4464 37.0303 25.7988 32.9032 25.7988C28.7754 25.7988 25.4294 22.4464 25.4294 18.3123C25.4294 14.1774 28.7754 10.8257 32.9032 10.8257C37.0303 10.8257 40.377 14.1774 40.377 18.3123Z" fill="#909499"/>
<path d="M70.9316 59.897L70.9353 59.9244L71.0005 59.96L70.9316 59.897Z" fill="#FAB9B1"/>
</svg>
