<svg width="40" height="32" viewBox="0 0 40 32" fill="none" xmlns="http://www.w3.org/2000/svg">
<path d="M40 28.6672C40 30.5005 38.5002 32.0005 36.667 32.0005H3.33302C1.49975 32.0005 0 30.5008 0 28.6672V3.33302C0 1.49975 1.49975 0 3.33302 0H36.667C38.5002 0 40 1.49975 40 3.33302V28.6672ZM3.33302 2.66659C2.97898 2.66659 2.66688 2.97986 2.66688 3.33272V28.6669C2.66688 29.021 2.97927 29.3331 3.33302 29.3331H36.667C37.0198 29.3331 37.334 29.021 37.334 28.6669V3.33272C37.334 2.97986 37.0198 2.66659 36.667 2.66659H3.33302V2.66659ZM9.33379 13.3332C7.12537 13.3332 5.33259 11.5416 5.33259 9.33379C5.33259 7.12596 7.12537 5.33347 9.33379 5.33347C11.5413 5.33347 13.3324 7.12596 13.3324 9.33379C13.3324 11.5416 11.5416 13.3332 9.33379 13.3332ZM34.6662 26.6674H5.33259V22.6664L11.9998 16.001L15.3328 19.3331L25.9995 8.66766L34.6662 17.3344V26.6674Z" fill="white"/>
</svg>
