<svg width="1998" height="1998" viewBox="0 0 1998 1998" fill="none" xmlns="http://www.w3.org/2000/svg">
<path d="M0 1998H1998V-0.000394821H0V1998Z" fill="#000100"/>
<path d="M621.135 511.155H571.393V461.413H621.135V511.155Z" fill="#00ACFF"/>
<path d="M630.056 520.075H580.314V470.332H630.056V520.075Z" fill="#FF2782"/>
<path d="M1362.7 1551.98H1312.96V1502.24H1362.7V1551.98Z" fill="#00ACFF"/>
<path d="M1371.62 1560.9H1321.88V1511.16H1371.62V1560.9Z" fill="#FF2782"/>
<path d="M1626.77 540.486H1577.02V490.744H1626.77V540.486Z" fill="#00ACFF"/>
<path d="M1635.69 549.41H1585.95V499.667H1635.69V549.41Z" fill="#FF2782"/>
<path d="M286.81 1315.37H237.067V1265.62H286.81V1315.37Z" fill="#00ACFF"/>
<path d="M295.736 1324.29H245.994V1274.55H295.736V1324.29Z" fill="#FF2782"/>
<path d="M1580.79 1340.24H1531.04V1290.5H1580.79V1340.24Z" fill="#00ACFF"/>
<path d="M1589.7 1349.16H1539.97V1299.42H1589.7V1349.16Z" fill="#FF2782"/>
<path d="M1458.6 687.927H1399.35V628.674H1458.6V687.927Z" fill="#00ACFF"/>
<path d="M1469.23 698.556H1409.97V639.303H1469.23V698.556Z" fill="#FF2782"/>
<path d="M799.648 1517.09H740.395V1457.84H799.648V1517.09Z" fill="#00ACFF"/>
<path d="M810.277 1527.72H751.024V1468.47H810.277V1527.72Z" fill="#FF2782"/>
<path d="M1024.97 369.262H965.713V310.009H1024.97V369.262Z" fill="#00ACFF"/>
<path d="M1035.6 379.888H976.343V320.635H1035.6V379.888Z" fill="#FF2782"/>
<path d="M1193.21 449.906H1166.65V423.34H1193.21V449.906Z" fill="#00ACFF"/>
<path d="M1197.97 454.672H1171.41V428.111H1197.97V454.672Z" fill="#FF2782"/>
<path d="M1116.81 1602.52H1090.25V1575.96H1116.81V1602.52Z" fill="#00ACFF"/>
<path d="M1121.57 1607.29H1095.01V1580.72H1121.57V1607.29Z" fill="#FF2782"/>
<path d="M459.912 1498.36H433.351V1471.8H459.912V1498.36Z" fill="#00ACFF"/>
<path d="M464.68 1503.13H438.119V1476.57H464.68V1503.13Z" fill="#FF2782"/>
<path d="M475.534 764.954H456.477L444.797 781.206H463.858L475.534 764.954Z" fill="#00ACFF"/>
<path d="M476.297 1016.69H495.354V951.107H476.489L476.297 951.379V1016.69Z" fill="#00ACFF"/>
<path d="M476.295 1027.5H495.352V1026.98H476.295V1027.5Z" fill="#00ACFF"/>
<path d="M253.998 1045.46L322.09 950.699H303.033L234.938 1045.46V1068.47H253.998V1045.46Z" fill="#00ACFF"/>
<path d="M234.94 1128.27H254.001V1089.05H234.94V1128.27Z" fill="#00ACFF"/>
<path d="M472.443 1214.28H491.504V1199.67H472.443V1214.28Z" fill="#00ACFF"/>
<path d="M361.047 869.959L325.311 919.693H344.372L380.104 869.959H361.047Z" fill="#00ACFF"/>
<path d="M804.038 1015.2H867.499V1004.91H830.696H793.889H784.39C785.357 1030.04 788.746 1053.3 794.556 1074.69H813.613C808.61 1056.26 805.453 1036.41 804.038 1015.2Z" fill="#00ACFF"/>
<path d="M808.949 924.84H789.888C786.036 944.96 784.05 966.526 784.05 989.619C784.05 991.317 784.142 992.94 784.162 994.618H803.219C803.199 992.94 803.107 991.317 803.107 989.619C803.107 966.526 805.093 944.96 808.949 924.84" fill="#00ACFF"/>
<path d="M1051.91 1089.05H1098.32V1078.76H1044.53H1038.32C1036.81 1082.12 1035.18 1085.27 1033.43 1088.15C1024.78 1102.38 1014.06 1111.73 1001.29 1116.2C1004.37 1117.26 1007.57 1118.02 1010.89 1118.54C1027.61 1115.91 1041.28 1106.09 1051.91 1089.05Z" fill="#00ACFF"/>
<path d="M800.389 1093.12C802.847 1100.01 805.536 1106.7 808.549 1113.16H827.61C824.593 1106.7 821.904 1100.01 819.45 1093.12H800.389Z" fill="#00ACFF"/>
<path d="M836.284 1129.9H817.228C833.291 1157.98 854.091 1179.95 879.697 1195.67C909.643 1214.07 943.889 1223.27 982.398 1223.27C985.603 1223.27 988.732 1223.11 991.881 1222.98C957.263 1221.56 926.186 1212.53 898.758 1195.67C873.148 1179.95 852.352 1157.98 836.284 1129.9Z" fill="#00ACFF"/>
<path d="M1371.75 992.381H1401.06V975.633H1367.07H1364.73L1314.55 1045.46V1083.03H1333.61V1045.46L1371.75 992.381Z" fill="#00ACFF"/>
<path d="M1552.05 1128.64H1571.11V1128.27H1552.05V1128.64Z" fill="#00ACFF"/>
<path d="M1540.07 1214.28H1559.13V1170.09H1540.07V1214.28Z" fill="#00ACFF"/>
<path d="M1555.9 1027.5H1574.96V951.108H1556.1L1555.9 951.387V1027.5Z" fill="#00ACFF"/>
<path d="M1468.69 830.942L1415.86 904.469H1434.92L1487.75 830.942H1468.69Z" fill="#00ACFF"/>
<path d="M404.2 1027.5H423.261L476.296 951.379L476.488 951.108L494.79 924.842H475.733L404.2 1027.5Z" fill="#FF2782"/>
<path d="M615.393 1027.5H634.449V984.438H615.393V1027.5Z" fill="#FF2782"/>
<path d="M615.393 1214.28H634.449V1128.27H615.393V1214.28Z" fill="#FF2782"/>
<path d="M701.202 1027.49H682.145V1062.02H657.146V1078.76H682.145V1128.27H701.202V1121.53H721.098V1111.24H701.202V1027.49Z" fill="#FF2782"/>
<path d="M634.449 951.107H615.393V965.572H634.449V951.107Z" fill="#FF2782"/>
<path d="M614.854 781.208L626.179 764.956H607.122L595.797 781.208H614.854Z" fill="#FF2782"/>
<path d="M490.071 904.259H509.132L580.536 801.786H561.475L490.071 904.259Z" fill="#FF2782"/>
<path d="M1010.93 1222.98C1014.11 1223.11 1017.28 1223.27 1020.51 1223.27C1058.6 1223.27 1092.62 1214.08 1122.58 1195.67C1132.2 1189.76 1141.06 1182.89 1149.33 1175.24H1130.27C1122 1182.89 1113.13 1189.76 1103.52 1195.67C1076.08 1212.53 1045.19 1221.57 1010.93 1222.98Z" fill="#FF2782"/>
<path d="M934.906 935.131C932.504 949.041 931.169 964.997 930.91 983.015H949.967C950.226 964.997 951.561 949.041 953.963 935.131H946.894H934.906Z" fill="#FF2782"/>
<path d="M1192.87 1115.11C1200.9 1098.34 1206.95 1080.04 1211.17 1060.32H1192.12C1187.9 1080.04 1181.84 1098.34 1173.81 1115.11C1164.65 1134.23 1153.51 1150.79 1140.53 1164.95H1150.24H1223.84V1154.66H1168.34C1177.62 1142.91 1185.84 1129.78 1192.87 1115.11Z" fill="#FF2782"/>
<path d="M1001.46 1119.28C1004.71 1119.28 1007.85 1119.01 1010.89 1118.53C1007.57 1118.02 1004.37 1117.26 1001.29 1116.2C988.309 1111.72 977.488 1102.38 968.841 1088.15C958.387 1070.97 952.281 1045.48 950.483 1011.74H968.988V1001.45H958.751H940.253H931.022C932.057 1040.34 938.295 1069.27 949.784 1088.15C962.403 1108.91 979.638 1119.28 1001.46 1119.28Z" fill="#FF2782"/>
<path d="M1714.05 951.108H1694.99V1027.5H1714.05V951.108Z" fill="#FF2782"/>
<path d="M1695 1159.8H1714.06V1128.27H1695V1159.8Z" fill="#FF2782"/>
<path d="M1611.09 872.194L1685.81 764.953H1666.76L1592.02 872.194H1611.09Z" fill="#FF2782"/>
<path d="M1683.01 1214.28H1702.07V1180.39H1683.01V1214.28Z" fill="#FF2782"/>
<path d="M1780.81 1061.4H1761.75V1128.27H1780.81V1061.4Z" fill="#FF2782"/>
<path d="M1483.81 1027.5H1502.87L1555.9 951.387L1556.1 951.108L1589.48 903.203H1570.42L1483.81 1027.5Z" fill="#FF2782"/>
<path d="M595.797 781.208L607.122 764.956H588.065H494.59H475.533L463.853 781.208H595.797Z" fill="white"/>
<path d="M558.975 1121.53H548.686V1111.24H558.975V1121.53ZM371.036 1089.05H360.746V1078.76H371.036V1089.05ZM657.145 1078.76V1062.02H682.144V1027.5H663.083H634.448H615.391V984.435H634.448H669.017V975.859V974.145H591.743V965.574H615.391V951.108H596.33H514.408H495.351V1016.69H533.845V1026.98H495.351V1027.5H476.294H423.259H404.198L475.731 924.838H494.788H516.973V914.549H472.102V904.263H490.072L561.477 801.79H580.534H619.319V791.5H472.102H436.478L394.892 849.382H449.013V859.672H420.274H375.403H368.438H346.664V869.961H361.046H380.102L344.37 919.695H363.075V935.2H273.058V950.7H303.032H322.089L253.997 1045.47V1068.47H234.94H192.794V1078.76H335.931V1089.05H253.997V1128.27H273.058H472.442H491.503V1179.09H508.905V1189.38H548.406V1199.67H491.503V1214.28H510.56H596.33H615.391V1128.27H634.448H663.083H682.144V1078.76H657.145Z" fill="white"/>
<path d="M1192.11 1060.33H1173.39H1026.43V1078.76H1038.32H1044.53H1098.32V1089.05H1051.91C1041.28 1106.09 1027.61 1115.91 1010.89 1118.54C1007.85 1119.01 1004.71 1119.28 1001.46 1119.28C979.634 1119.28 962.399 1108.91 949.78 1088.15C938.292 1069.27 932.058 1040.35 931.023 1001.45H924.693V983.015H930.907C931.167 964.997 932.501 949.041 934.903 935.131H946.891H953.96H965.948H1012.65V924.841H1006.04H865.68V935.131H853.692V924.841H808.949C805.089 944.961 803.107 966.523 803.107 989.62C803.107 991.315 803.195 992.941 803.219 994.619H830.695V1004.91H867.498V1015.2H804.038C805.449 1036.41 808.605 1056.26 813.612 1074.69H794.556H760.43V1093.12H800.39H819.447C821.904 1100.01 824.593 1106.7 827.606 1113.16H853.692V1129.9H836.282C852.35 1157.98 873.145 1179.95 898.755 1195.67C926.184 1212.53 957.261 1221.57 991.878 1222.98C995.055 1223.11 998.22 1223.27 1001.46 1223.27C1004.66 1223.27 1007.79 1223.11 1010.93 1222.98C1045.19 1221.57 1076.08 1212.53 1103.52 1195.67C1113.13 1189.76 1122 1182.89 1130.27 1175.24H978.487V1164.95H1140.53C1153.51 1150.79 1164.65 1134.23 1173.81 1115.11C1181.84 1098.34 1187.9 1080.05 1192.11 1060.33Z" fill="white"/>
<path d="M1559.13 1170.09V1214.29H1578.18H1663.95H1683.01V1180.38H1702.07H1722.5V1170.09H1575.28H1559.13Z" fill="white"/>
<path d="M1616.9 1103.94H1635.33V1122.38H1616.9V1103.94ZM1509.55 1103.18H1499.26V1092.89H1509.55V1103.18ZM1394.72 1050.03H1376.29V1031.6H1394.72V1050.03ZM1596.75 781.21H1607.04V791.499H1596.75V781.21ZM1742.69 1027.5H1714.06H1695V951.108H1675.94H1594.02H1574.96V1027.5H1555.9H1502.87H1483.81L1570.42 903.2H1589.48H1640.35V887.695H1528.62V872.195H1592.03L1666.75 764.954H1647.7H1554.22H1535.17L1508.39 802.217H1548.64V812.506H1494.84H1481.94H1419.77V830.944H1468.69H1487.75L1434.92 904.47H1444.63V914.34H1474.11V924.63H1420.43L1395.82 958.884H1482.57V975.635H1401.06V992.382H1371.75L1333.6 1045.47V1083.02H1440.55V1093.32H1368.34V1103.18H1333.6V1128.27H1352.67H1552.05H1571.11V1128.64H1577.89V1138.93H1614.17V1149.22H1571.11V1159.8H1695V1128.27H1714.06H1742.69H1761.76V1061.4H1606.36V1051.11H1761.76V1027.5H1742.69Z" fill="white"/>
<path d="M1474.11 924.629V914.339H1444.63V914.758H1420.31H1408.46L1376.76 958.886H1395.82L1420.43 924.629H1474.11Z" fill="#00ACFF"/>
<path d="M1548.64 812.507V802.218H1508.39L1535.17 764.955H1516.1L1481.94 812.507H1494.84H1548.64Z" fill="#00ACFF"/>
<path d="M420.274 859.671H449.013V849.381H394.891L436.481 791.499H417.424L375.834 849.381H375.403V849.977L368.438 859.671H375.403H420.274Z" fill="#00ACFF"/>
<path d="M491.503 1179.09V1128.27H472.442V1179.09H435.299V1189.38H508.909V1179.09H491.503Z" fill="#00ACFF"/>
<path d="M1780.81 1040.82V1027.49H1761.75V1051.11H1765.69H1816.31H1826V1040.82H1780.81Z" fill="#FF2782"/>
<path d="M652.002 1199.67H662.292V1189.38H652.002V1199.67Z" fill="#FF2782"/>
<path d="M1607.04 781.209H1596.75V791.499H1607.04V781.209Z" fill="#FF2782"/>
<path d="M351.812 815.507H341.522V825.796H351.812V815.507Z" fill="#00ACFF"/>
<path d="M548.687 1121.53H558.976V1111.24H548.687V1121.53Z" fill="#00ACFF"/>
<path d="M1499.26 1103.18H1509.55V1092.89H1499.26V1103.18Z" fill="#00ACFF"/>
<path d="M646.587 791.499H636.297V801.789H646.587V791.499Z" fill="white"/>
<path d="M1381.43 867.049H1371.14V877.338H1381.43V867.049Z" fill="white"/>
<path d="M574.767 890.305H564.478V900.594H574.767V890.305Z" fill="white"/>
<path d="M212.946 970.716H202.657V981.005H212.946V970.716Z" fill="white"/>
<path d="M1477.42 1189.38H1487.71V1179.09H1477.42V1189.38Z" fill="white"/>
<path d="M1739.48 1180.39H1749.77V1170.1H1739.48V1180.39Z" fill="white"/>
<path d="M857.302 835.015H838.241C832.076 844.006 826.413 853.648 821.398 864.129C813.962 879.646 808.263 896.505 804.1 914.547H823.157C827.32 896.505 833.019 879.646 840.455 864.129C845.47 853.648 851.137 844.006 857.302 835.015Z" fill="#00ACFF"/>
<path d="M910.743 783.57C938.171 766.723 969.248 757.676 1003.87 756.257C1000.72 756.126 997.588 755.966 994.387 755.966C955.874 755.966 921.632 765.172 891.682 783.57C877.065 792.549 864.03 803.574 852.517 816.581H871.574C883.086 803.574 896.121 792.549 910.743 783.57Z" fill="#00ACFF"/>
<path d="M1064.48 891.088C1053.77 873.493 1039.9 863.379 1022.88 860.706C1019.56 861.217 1016.35 861.981 1013.28 863.04C1026.05 867.519 1036.76 876.866 1045.42 891.088C1058.04 911.847 1064.36 944.686 1064.36 989.621C1064.36 1009.39 1063.13 1026.8 1060.69 1041.89H1079.75C1082.19 1026.8 1083.41 1009.39 1083.41 989.621C1083.41 944.686 1077.09 911.847 1064.48 891.088Z" fill="#00ACFF"/>
<path d="M1158.09 820.653H1177.15C1164.81 805.88 1150.67 793.465 1134.57 783.57C1104.61 765.177 1070.59 755.97 1032.5 755.97C1029.27 755.97 1026.1 756.13 1022.92 756.258C1057.18 757.676 1088.07 766.723 1115.51 783.57C1131.61 793.465 1145.76 805.88 1158.09 820.653Z" fill="#FF2782"/>
<path d="M1013.45 859.956C992.85 859.956 976.347 869.211 963.947 887.697H915.943V897.986H958.053C955.636 902.961 953.494 908.468 951.656 914.55H970.713C973.446 905.511 976.814 897.683 980.826 891.089C989.478 876.864 1000.29 867.517 1013.27 863.041C1016.35 861.978 1019.56 861.219 1022.88 860.704C1019.84 860.224 1016.69 859.956 1013.45 859.956Z" fill="#FF2782"/>
<path d="M1211.04 984.428C1211.06 986.17 1211.15 987.861 1211.15 989.619C1211.15 1007.99 1209.92 1025.41 1207.48 1041.89H1226.54C1228.77 1026.83 1229.91 1010.93 1230.1 994.298H1272.24V984.428H1218.45H1211.04Z" fill="#FF2782"/>
<path d="M1185.8 864.13C1200.86 895.602 1209.17 932.298 1210.81 974.14H1229.86C1228.23 932.298 1219.92 895.602 1204.86 864.13C1200.98 856.034 1196.71 848.441 1192.15 841.237H1173.09C1177.66 848.441 1181.92 856.034 1185.8 864.13Z" fill="#FF2782"/>
<path d="M1184.72 1027.52H1174.43V1017.23H1184.72V1027.52ZM1137.07 908.346H1126.79V898.057H1137.07V908.346ZM915.399 835.016H896.962V816.582H915.399V835.016ZM1211.04 984.43H1179.57V974.137H1210.81C1209.17 932.294 1200.87 895.603 1185.8 864.131C1181.92 856.035 1177.66 848.438 1173.09 841.234H1192.15H1265.58V830.944H1230.38H1118.61H1083.42V820.654H1158.09C1145.76 805.877 1131.61 793.461 1115.51 783.571C1088.07 766.724 1057.18 757.673 1022.92 756.259C1019.78 756.127 1016.65 755.967 1013.45 755.967C1010.21 755.967 1007.04 756.127 1003.87 756.259C969.25 757.673 938.173 766.724 910.744 783.571C896.123 792.55 883.088 803.575 871.575 816.582H877.905V835.016H857.302C851.136 844.007 845.469 853.649 840.454 864.131C833.018 879.647 827.32 896.506 823.156 914.548H951.655C953.493 908.47 955.635 902.964 958.053 897.989H915.943V887.695H963.951C976.346 869.213 992.85 859.959 1013.45 859.959C1016.7 859.959 1019.83 860.226 1022.88 860.706C1039.89 863.383 1053.77 873.493 1064.48 891.088C1077.09 911.847 1083.42 944.686 1083.42 989.621C1083.42 1009.39 1082.19 1026.8 1079.75 1041.89H1207.48C1209.92 1025.41 1211.15 1007.99 1211.15 989.621C1211.15 987.859 1211.06 986.172 1211.04 984.43" fill="white"/>
<path d="M1262.27 915.623H1243.84V934.06H1262.27V915.623Z" fill="#FF2782"/>
<path d="M1635.33 1103.94H1616.9V1122.38H1635.33V1103.94Z" fill="#FF2782"/>
<path d="M1680.42 809.685H1695.35V794.752H1680.42V809.685Z" fill="#FF2782"/>
<path d="M1368.34 1103.18V1093.31H1314.55V1103.18V1128.27H1333.61V1103.18H1368.34Z" fill="#00ACFF"/>
<path d="M1614.17 1149.22V1138.93H1577.89H1560.37H1552.05V1159.8H1571.12V1149.22H1614.17Z" fill="#00ACFF"/>
<path d="M724.889 848.771V844.008H698.328V870.569H703.091V848.771H724.889Z" fill="#00ACFF"/>
<path d="M703.093 848.772V870.57V875.333H729.654V848.772H724.891H703.093Z" fill="#FF2782"/>
<path d="M1394.97 1249.83H1368.41V1223.27H1394.97V1249.83Z" fill="#00ACFF"/>
<path d="M1399.73 1254.6H1373.17V1228.04H1399.73V1254.6Z" fill="#FF2782"/>
<path d="M371.643 679.832H345.082V653.271H371.643V679.832Z" fill="#00ACFF"/>
<path d="M376.41 684.595H349.849V658.033H376.41V684.595Z" fill="#FF2782"/>
<path d="M519.807 1351.14H493.245V1324.58H519.807V1351.14Z" fill="#00ACFF"/>
<path d="M524.57 1355.9H498.009V1329.34H524.57V1355.9Z" fill="#FF2782"/>
</svg>
