<svg width="667" height="667" viewBox="0 0 667 667" fill="none" xmlns="http://www.w3.org/2000/svg">
<g clip-path="url(#clip0)">
<path d="M0 666.667H666.667V-0.000123024H0V666.667Z" fill="#000100"/>
<path d="M267.368 202.334V208.332H242.363V176.036H266.769V182.034H249.79V189.047H264.785V194.86H249.79V202.334H267.368ZM293.892 208.332L287.664 199.335H287.295H280.789V208.332H273.315V176.036H287.295C290.155 176.036 292.631 176.513 294.723 177.466C296.845 178.42 298.475 179.773 299.613 181.526C300.751 183.279 301.32 185.356 301.32 187.755C301.32 190.154 300.736 192.23 299.567 193.983C298.429 195.706 296.799 197.028 294.677 197.951L301.92 208.332H293.892ZM293.754 187.755C293.754 185.94 293.169 184.556 292.001 183.602C290.832 182.618 289.125 182.126 286.879 182.126H280.789V193.383H286.879C289.125 193.383 290.832 192.891 292.001 191.907C293.169 190.923 293.754 189.539 293.754 187.755ZM327.819 208.332L321.59 199.335H321.221H314.716V208.332H307.242V176.036H321.221C324.082 176.036 326.558 176.513 328.649 177.466C330.771 178.42 332.402 179.773 333.54 181.526C334.678 183.279 335.247 185.356 335.247 187.755C335.247 190.154 334.662 192.23 333.493 193.983C332.355 195.706 330.725 197.028 328.603 197.951L335.846 208.332H327.819ZM327.68 187.755C327.68 185.94 327.096 184.556 325.927 183.602C324.758 182.618 323.051 182.126 320.806 182.126H314.716V193.383H320.806C323.051 193.383 324.758 192.891 325.927 191.907C327.096 190.923 327.68 189.539 327.68 187.755ZM356.809 208.885C353.456 208.885 350.426 208.162 347.72 206.717C345.044 205.271 342.937 203.287 341.399 200.765C339.892 198.212 339.138 195.352 339.138 192.184C339.138 189.016 339.892 186.171 341.399 183.649C342.937 181.096 345.044 179.096 347.72 177.651C350.426 176.205 353.456 175.482 356.809 175.482C360.161 175.482 363.175 176.205 365.851 177.651C368.527 179.096 370.634 181.096 372.172 183.649C373.71 186.171 374.479 189.016 374.479 192.184C374.479 195.352 373.71 198.212 372.172 200.765C370.634 203.287 368.527 205.271 365.851 206.717C363.175 208.162 360.161 208.885 356.809 208.885ZM356.809 202.518C358.716 202.518 360.438 202.088 361.976 201.227C363.514 200.335 364.713 199.104 365.574 197.536C366.466 195.967 366.912 194.183 366.912 192.184C366.912 190.185 366.466 188.401 365.574 186.832C364.713 185.263 363.514 184.048 361.976 183.187C360.438 182.295 358.716 181.849 356.809 181.849C354.902 181.849 353.179 182.295 351.641 183.187C350.103 184.048 348.888 185.263 347.996 186.832C347.135 188.401 346.705 190.185 346.705 192.184C346.705 194.183 347.135 195.967 347.996 197.536C348.888 199.104 350.103 200.335 351.641 201.227C353.179 202.088 354.902 202.518 356.809 202.518ZM400.673 208.332L394.444 199.335H394.075H387.57V208.332H380.096V176.036H394.075C396.936 176.036 399.412 176.513 401.503 177.466C403.625 178.42 405.256 179.773 406.394 181.526C407.532 183.279 408.101 185.356 408.101 187.755C408.101 190.154 407.516 192.23 406.347 193.983C405.209 195.706 403.579 197.028 401.457 197.951L408.7 208.332H400.673ZM400.534 187.755C400.534 185.94 399.95 184.556 398.781 183.602C397.612 182.618 395.905 182.126 393.66 182.126H387.57V193.383H393.66C395.905 193.383 397.612 192.891 398.781 191.907C399.95 190.923 400.534 189.539 400.534 187.755Z" fill="white"/>
<path d="M212.228 452.671C213.722 452.671 215.015 452.92 216.108 453.418C217.216 453.917 218.068 454.623 218.662 455.539C219.257 456.455 219.554 457.539 219.554 458.792C219.554 460.029 219.257 461.114 218.662 462.046C218.068 462.961 217.216 463.668 216.108 464.166C215.015 464.648 213.722 464.889 212.228 464.889H208.83V469.54H204.926V452.671H212.228ZM212.011 461.708C213.184 461.708 214.076 461.459 214.686 460.961C215.297 460.447 215.602 459.724 215.602 458.792C215.602 457.844 215.297 457.122 214.686 456.624C214.076 456.109 213.184 455.852 212.011 455.852H208.83V461.708H212.011ZM232.603 465.925H224.771L223.277 469.54H219.277L226.795 452.671H230.651L238.194 469.54H234.097L232.603 465.925ZM231.374 462.961L228.699 456.503L226.024 462.961H231.374ZM251.107 460.841H254.673V467.684C253.758 468.375 252.697 468.905 251.492 469.275C250.287 469.644 249.075 469.829 247.854 469.829C246.102 469.829 244.528 469.46 243.13 468.721C241.733 467.966 240.632 466.929 239.829 465.612C239.042 464.279 238.648 462.777 238.648 461.106C238.648 459.435 239.042 457.941 239.829 456.624C240.632 455.29 241.741 454.254 243.154 453.515C244.568 452.76 246.159 452.382 247.926 452.382C249.404 452.382 250.745 452.631 251.95 453.129C253.155 453.627 254.167 454.35 254.987 455.298L252.48 457.612C251.276 456.342 249.822 455.708 248.119 455.708C247.042 455.708 246.086 455.933 245.251 456.383C244.416 456.832 243.765 457.467 243.299 458.286C242.833 459.106 242.6 460.045 242.6 461.106C242.6 462.15 242.833 463.082 243.299 463.901C243.765 464.72 244.408 465.363 245.227 465.829C246.062 466.279 247.01 466.504 248.07 466.504C249.195 466.504 250.207 466.263 251.107 465.781V460.841ZM271.361 466.407V469.54H258.3V452.671H271.048V455.804H262.179V459.467H270.011V462.503H262.179V466.407H271.361ZM296.763 452.671V469.54H293.558L285.147 459.298V469.54H281.292V452.671H284.521L292.907 462.913V452.671H296.763ZM308.923 469.829C307.172 469.829 305.589 469.452 304.176 468.697C302.778 467.942 301.677 466.905 300.874 465.588C300.087 464.255 299.693 462.76 299.693 461.106C299.693 459.451 300.087 457.965 300.874 456.648C301.677 455.314 302.778 454.27 304.176 453.515C305.589 452.76 307.172 452.382 308.923 452.382C310.674 452.382 312.248 452.76 313.646 453.515C315.044 454.27 316.144 455.314 316.947 456.648C317.751 457.965 318.152 459.451 318.152 461.106C318.152 462.76 317.751 464.255 316.947 465.588C316.144 466.905 315.044 467.942 313.646 468.697C312.248 469.452 310.674 469.829 308.923 469.829ZM308.923 466.504C309.919 466.504 310.819 466.279 311.622 465.829C312.425 465.363 313.052 464.72 313.501 463.901C313.967 463.082 314.2 462.15 314.2 461.106C314.2 460.061 313.967 459.13 313.501 458.31C313.052 457.491 312.425 456.856 311.622 456.407C310.819 455.941 309.919 455.708 308.923 455.708C307.927 455.708 307.027 455.941 306.224 456.407C305.421 456.856 304.786 457.491 304.32 458.31C303.87 459.13 303.645 460.061 303.645 461.106C303.645 462.15 303.87 463.082 304.32 463.901C304.786 464.72 305.421 465.363 306.224 465.829C307.027 466.279 307.927 466.504 308.923 466.504ZM324.345 455.852H318.947V452.671H333.647V455.852H328.249V469.54H324.345V455.852ZM346.476 455.804V460.262H354.284V463.395H346.476V469.54H342.572V452.671H355.32V455.804H346.476ZM365.967 469.829C364.216 469.829 362.634 469.452 361.22 468.697C359.822 467.942 358.722 466.905 357.919 465.588C357.131 464.255 356.738 462.76 356.738 461.106C356.738 459.451 357.131 457.965 357.919 456.648C358.722 455.314 359.822 454.27 361.22 453.515C362.634 452.76 364.216 452.382 365.967 452.382C367.718 452.382 369.293 452.76 370.691 453.515C372.088 454.27 373.189 455.314 373.992 456.648C374.795 457.965 375.197 459.451 375.197 461.106C375.197 462.76 374.795 464.255 373.992 465.588C373.189 466.905 372.088 467.942 370.691 468.697C369.293 469.452 367.718 469.829 365.967 469.829ZM365.967 466.504C366.963 466.504 367.863 466.279 368.666 465.829C369.47 465.363 370.096 464.72 370.546 463.901C371.012 463.082 371.245 462.15 371.245 461.106C371.245 460.061 371.012 459.13 370.546 458.31C370.096 457.491 369.47 456.856 368.666 456.407C367.863 455.941 366.963 455.708 365.967 455.708C364.971 455.708 364.072 455.941 363.268 456.407C362.465 456.856 361.83 457.491 361.365 458.31C360.915 459.13 360.69 460.061 360.69 461.106C360.69 462.15 360.915 463.082 361.365 463.901C361.83 464.72 362.465 465.363 363.268 465.829C364.072 466.279 364.971 466.504 365.967 466.504ZM385.625 469.829C383.215 469.829 381.336 469.163 379.986 467.829C378.653 466.496 377.986 464.592 377.986 462.118V452.671H381.89V461.973C381.89 464.994 383.143 466.504 385.649 466.504C386.87 466.504 387.802 466.142 388.445 465.419C389.087 464.68 389.409 463.532 389.409 461.973V452.671H393.264V462.118C393.264 464.592 392.59 466.496 391.24 467.829C389.907 469.163 388.035 469.829 385.625 469.829ZM412.593 452.671V469.54H409.388L400.978 459.298V469.54H397.122V452.671H400.351L408.737 462.913V452.671H412.593ZM416.584 452.671H424.247C426.079 452.671 427.693 453.025 429.091 453.732C430.505 454.423 431.597 455.403 432.368 456.672C433.155 457.941 433.549 459.419 433.549 461.106C433.549 462.793 433.155 464.271 432.368 465.54C431.597 466.809 430.505 467.797 429.091 468.504C427.693 469.195 426.079 469.54 424.247 469.54H416.584V452.671ZM424.054 466.335C425.741 466.335 427.083 465.869 428.079 464.937C429.091 463.989 429.597 462.712 429.597 461.106C429.597 459.499 429.091 458.23 428.079 457.298C427.083 456.35 425.741 455.876 424.054 455.876H420.488V466.335H424.054Z" fill="white"/>
<path d="M270.548 200.744V206.742H245.542V174.446H269.948V180.444H252.97V187.457H267.964V193.27H252.97V200.744H270.548ZM297.071 206.742L290.843 197.745H290.474H283.969V206.742H276.495V174.446H290.474C293.334 174.446 295.81 174.923 297.902 175.876C300.024 176.83 301.654 178.183 302.792 179.936C303.93 181.69 304.499 183.766 304.499 186.165C304.499 188.564 303.915 190.64 302.746 192.393C301.608 194.116 299.978 195.438 297.856 196.361L305.099 206.742H297.071ZM296.933 186.165C296.933 184.35 296.349 182.966 295.18 182.013C294.011 181.028 292.304 180.536 290.059 180.536H283.969V191.794H290.059C292.304 191.794 294.011 191.301 295.18 190.317C296.349 189.333 296.933 187.949 296.933 186.165ZM330.998 206.742L324.769 197.745H324.4H317.895V206.742H310.421V174.446H324.4C327.261 174.446 329.737 174.923 331.828 175.876C333.951 176.83 335.581 178.183 336.719 179.936C337.857 181.69 338.426 183.766 338.426 186.165C338.426 188.564 337.841 190.64 336.673 192.393C335.535 194.116 333.904 195.438 331.782 196.361L339.026 206.742H330.998ZM330.859 186.165C330.859 184.35 330.275 182.966 329.106 182.013C327.937 181.028 326.23 180.536 323.985 180.536H317.895V191.794H323.985C326.23 191.794 327.937 191.301 329.106 190.317C330.275 189.333 330.859 187.949 330.859 186.165ZM359.988 207.295C356.635 207.295 353.606 206.573 350.899 205.127C348.223 203.681 346.116 201.697 344.578 199.175C343.071 196.622 342.317 193.762 342.317 190.594C342.317 187.426 343.071 184.581 344.578 182.059C346.116 179.506 348.223 177.507 350.899 176.061C353.606 174.615 356.635 173.893 359.988 173.893C363.34 173.893 366.355 174.615 369.03 176.061C371.706 177.507 373.813 179.506 375.351 182.059C376.889 184.581 377.658 187.426 377.658 190.594C377.658 193.762 376.889 196.622 375.351 199.175C373.813 201.697 371.706 203.681 369.03 205.127C366.355 206.573 363.34 207.295 359.988 207.295ZM359.988 200.929C361.895 200.929 363.617 200.498 365.155 199.637C366.693 198.745 367.892 197.514 368.754 195.946C369.646 194.377 370.092 192.593 370.092 190.594C370.092 188.595 369.646 186.811 368.754 185.242C367.892 183.674 366.693 182.459 365.155 181.597C363.617 180.705 361.895 180.259 359.988 180.259C358.081 180.259 356.358 180.705 354.82 181.597C353.283 182.459 352.068 183.674 351.176 185.242C350.314 186.811 349.884 188.595 349.884 190.594C349.884 192.593 350.314 194.377 351.176 195.946C352.068 197.514 353.283 198.745 354.82 199.637C356.358 200.498 358.081 200.929 359.988 200.929ZM403.852 206.742L397.623 197.745H397.254H390.749V206.742H383.275V174.446H397.254C400.115 174.446 402.591 174.923 404.682 175.876C406.805 176.83 408.435 178.183 409.573 179.936C410.711 181.69 411.28 183.766 411.28 186.165C411.28 188.564 410.695 190.64 409.527 192.393C408.389 194.116 406.759 195.438 404.636 196.361L411.88 206.742H403.852ZM403.713 186.165C403.713 184.35 403.129 182.966 401.96 182.013C400.792 181.028 399.084 180.536 396.839 180.536H390.749V191.794H396.839C399.084 191.794 400.792 191.301 401.96 190.317C403.129 189.333 403.713 187.949 403.713 186.165Z" fill="white"/>
<path d="M207.252 170.556H190.655V153.958H207.252V170.556Z" fill="#00ACFF"/>
<path d="M210.229 173.532H193.632V156.934H210.229V173.532Z" fill="#FF2782"/>
<path d="M454.687 517.845H438.091V501.249H454.687V517.845Z" fill="#00ACFF"/>
<path d="M457.664 520.822H441.066V504.225H457.664V520.822Z" fill="#FF2782"/>
<path d="M542.799 180.342H526.201V163.745H542.799V180.342Z" fill="#00ACFF"/>
<path d="M545.775 183.32H529.179V166.722H545.775V183.32Z" fill="#FF2782"/>
<path d="M95.6989 438.895H79.1016V422.297H95.6989V438.895Z" fill="#00ACFF"/>
<path d="M98.6774 441.872H82.0801V425.275H98.6774V441.872Z" fill="#FF2782"/>
<path d="M527.456 447.194H510.859V430.597H527.456V447.194Z" fill="#00ACFF"/>
<path d="M530.432 450.17H513.836V433.573H530.432V450.17Z" fill="#FF2782"/>
<path d="M486.687 229.539H466.916V209.768H486.687V229.539Z" fill="#00ACFF"/>
<path d="M490.233 233.085H470.461V213.314H490.233V233.085Z" fill="#FF2782"/>
<path d="M266.816 506.203H247.045V486.432H266.816V506.203Z" fill="#00ACFF"/>
<path d="M270.362 509.749H250.592V489.978H270.362V509.749Z" fill="#FF2782"/>
<path d="M341.999 123.21H322.227V103.44H341.999V123.21Z" fill="#00ACFF"/>
<path d="M345.545 126.756H325.773V106.985H345.545V126.756Z" fill="#FF2782"/>
<path d="M398.135 150.119H389.272V141.255H398.135V150.119Z" fill="#00ACFF"/>
<path d="M399.724 151.709H390.861V142.846H399.724V151.709Z" fill="#FF2782"/>
<path d="M372.641 534.708H363.779V525.845H372.641V534.708Z" fill="#00ACFF"/>
<path d="M374.232 536.298H365.369V527.436H374.232V536.298Z" fill="#FF2782"/>
<path d="M153.457 499.955H144.595V491.092H153.457V499.955Z" fill="#00ACFF"/>
<path d="M155.048 501.544H146.186V492.681H155.048V501.544Z" fill="#FF2782"/>
<path d="M158.67 255.24H152.311L148.414 260.663H154.774L158.67 255.24Z" fill="#00ACFF"/>
<path d="M158.924 339.237H165.283V317.353H158.988L158.924 317.443V339.237Z" fill="#00ACFF"/>
<path d="M158.924 342.841H165.282V342.671H158.924V342.841Z" fill="#00ACFF"/>
<path d="M84.7511 348.837L107.471 317.217H101.112L78.3911 348.837V356.514H84.7511V348.837Z" fill="#00ACFF"/>
<path d="M78.3921 376.468H84.7521V363.381H78.3921V376.468Z" fill="#00ACFF"/>
<path d="M157.639 405.167H163.999V400.291H157.639V405.167Z" fill="#00ACFF"/>
<path d="M120.469 290.276L108.545 306.871H114.905L126.828 290.276H120.469Z" fill="#00ACFF"/>
<path d="M268.281 338.738H289.456V335.305H277.176H264.894H261.725C262.048 343.69 263.178 351.452 265.117 358.589H271.476C269.806 352.438 268.753 345.814 268.281 338.738Z" fill="#00ACFF"/>
<path d="M269.92 308.588H263.56C262.274 315.302 261.612 322.498 261.612 330.203C261.612 330.77 261.642 331.311 261.649 331.871H268.008C268.001 331.311 267.97 330.77 267.97 330.203C267.97 322.498 268.633 315.302 269.92 308.588" fill="#00ACFF"/>
<path d="M350.988 363.38H366.474V359.948H348.524H346.454C345.948 361.068 345.407 362.117 344.822 363.08C341.934 367.828 338.358 370.947 334.096 372.439C335.124 372.793 336.194 373.047 337.302 373.219C342.879 372.341 347.442 369.065 350.988 363.38Z" fill="#00ACFF"/>
<path d="M267.063 364.739C267.883 367.035 268.781 369.27 269.786 371.423H276.146C275.139 369.27 274.242 367.035 273.423 364.739H267.063Z" fill="#00ACFF"/>
<path d="M279.04 377.012H272.682C278.042 386.381 284.982 393.709 293.526 398.956C303.518 405.096 314.944 408.165 327.794 408.165C328.863 408.165 329.907 408.112 330.958 408.069C319.407 407.596 309.038 404.581 299.886 398.956C291.34 393.709 284.402 386.381 279.04 377.012Z" fill="#00ACFF"/>
<path d="M457.707 331.125H467.488V325.537H456.147H455.364L438.622 348.837V361.37H444.98V348.837L457.707 331.125Z" fill="#00ACFF"/>
<path d="M517.869 376.591H524.229V376.467H517.869V376.591Z" fill="#00ACFF"/>
<path d="M513.869 405.167H520.229V390.421H513.869V405.167Z" fill="#00ACFF"/>
<path d="M519.153 342.841H525.513V317.353H519.219L519.153 317.447V342.841Z" fill="#00ACFF"/>
<path d="M490.053 277.258L472.425 301.792H478.785L496.413 277.258H490.053Z" fill="#00ACFF"/>
<path d="M134.868 342.841H141.228L158.924 317.444L158.988 317.353L165.095 308.589H158.736L134.868 342.841Z" fill="#FF2782"/>
<path d="M205.336 342.841H211.695V328.475H205.336V342.841Z" fill="#FF2782"/>
<path d="M205.336 405.167H211.695V376.468H205.336V405.167Z" fill="#FF2782"/>
<path d="M233.968 342.841H227.609V354.36H219.268V359.948H227.609V376.468H233.968V374.217H240.607V370.784H233.968V342.841Z" fill="#FF2782"/>
<path d="M211.695 317.353H205.336V322.18H211.695V317.353Z" fill="#FF2782"/>
<path d="M205.157 260.664L208.935 255.241H202.577L198.798 260.664H205.157Z" fill="#FF2782"/>
<path d="M163.521 301.722H169.881L193.706 267.53H187.346L163.521 301.722Z" fill="#FF2782"/>
<path d="M337.315 408.069C338.376 408.112 339.432 408.165 340.511 408.165C353.219 408.165 364.571 405.097 374.567 398.956C377.776 396.985 380.734 394.692 383.495 392.138H377.135C374.375 394.692 371.416 396.985 368.208 398.956C359.052 404.581 348.746 407.597 337.315 408.069Z" fill="#FF2782"/>
<path d="M311.947 312.022C311.146 316.664 310.7 321.988 310.614 328H316.972C317.059 321.988 317.504 316.664 318.306 312.022H315.947H311.947Z" fill="#FF2782"/>
<path d="M398.021 372.075C400.701 366.479 402.721 360.375 404.129 353.795H397.77C396.363 360.375 394.341 366.479 391.661 372.075C388.605 378.455 384.889 383.979 380.557 388.706H383.795H408.355V385.271H389.837C392.934 381.35 395.675 376.97 398.021 372.075Z" fill="#FF2782"/>
<path d="M334.153 373.467C335.238 373.467 336.285 373.378 337.302 373.218C336.194 373.047 335.123 372.793 334.097 372.439C329.766 370.946 326.155 367.829 323.27 363.081C319.782 357.349 317.745 348.843 317.145 337.585H323.319V334.151H319.903H313.731H310.651C310.997 347.129 313.078 356.781 316.911 363.081C321.122 370.007 326.873 373.467 334.153 373.467Z" fill="#FF2782"/>
<path d="M571.923 317.353H565.563V342.841H571.923V317.353Z" fill="#FF2782"/>
<path d="M565.565 386.988H571.925V376.466H565.565V386.988Z" fill="#FF2782"/>
<path d="M537.566 291.022L562.499 255.24H556.142L531.206 291.022H537.566Z" fill="#FF2782"/>
<path d="M561.565 405.167H567.925V393.856H561.565V405.167Z" fill="#FF2782"/>
<path d="M594.198 354.153H587.838V376.467H594.198V354.153Z" fill="#FF2782"/>
<path d="M495.099 342.841H501.459L519.153 317.447L519.219 317.353L530.356 301.369H523.997L495.099 342.841Z" fill="#FF2782"/>
<path d="M198.798 260.664L202.576 255.241H196.218H165.028H158.67L154.772 260.664H198.798Z" fill="white"/>
<path d="M186.512 374.217H183.078V370.784H186.512V374.217ZM123.802 363.38H120.369V359.948H123.802V363.38ZM219.268 359.948V354.36H227.609V342.841H221.249H211.694H205.336V328.473H211.694H223.229V325.612V325.04H197.445V322.18H205.336V317.353H198.976H171.641H165.282V339.237H178.126V342.671H165.282V342.841H158.924H141.228H134.868L158.736 308.588H165.094H172.497V305.154H157.525V301.722H163.521L187.346 267.531H193.705H206.646V264.097H157.525H145.638L131.762 283.411H149.821V286.844H140.232H125.26H122.936H115.67V290.277H120.469H126.828L114.905 306.872H121.146V312.045H91.1104V317.217H101.112H107.47L84.7504 348.837V356.515H78.3918H64.3291V359.948H112.089V363.38H84.7504V376.468H91.1104H157.638H163.998V393.423H169.805V396.857H182.985V400.291H163.998V405.167H170.357H198.976H205.336V376.468H211.694H221.249H227.609V359.948H219.268Z" fill="white"/>
<path d="M397.769 353.796H391.522H342.485V359.948H346.453H348.524H366.473V363.38H350.988C347.441 369.065 342.878 372.341 337.301 373.218C336.285 373.378 335.238 373.468 334.153 373.468C326.872 373.468 321.121 370.008 316.91 363.081C313.077 356.781 310.997 347.129 310.652 334.152H308.54V328H310.613C310.7 321.988 311.145 316.664 311.946 312.022H315.946H318.305H322.305H337.886V308.589H335.682H288.849V312.022H284.849V308.589H269.92C268.632 315.302 267.97 322.497 267.97 330.204C267.97 330.769 268 331.312 268.008 331.872H277.176V335.305H289.456V338.738H268.281C268.752 345.814 269.805 352.438 271.476 358.589H265.117H253.73V364.74H267.064H273.422C274.242 367.036 275.14 369.27 276.145 371.424H284.849V377.012H279.04C284.401 386.381 291.34 393.71 299.885 398.956C309.037 404.581 319.406 407.597 330.957 408.069C332.017 408.112 333.073 408.165 334.153 408.165C335.221 408.165 336.266 408.112 337.314 408.069C348.745 407.597 359.052 404.581 368.208 398.956C371.416 396.985 374.374 394.692 377.134 392.138H326.489V388.706H380.557C384.889 383.98 388.605 378.456 391.661 372.076C394.341 366.48 396.362 360.376 397.769 353.796Z" fill="white"/>
<path d="M520.229 390.422V405.167H526.588H555.205H561.565V393.855H567.924H574.742V390.422H525.62H520.229Z" fill="white"/>
<path d="M539.505 368.348H545.657V374.5H539.505V368.348ZM503.687 368.096H500.254V364.662H503.687V368.096ZM465.373 350.361H459.222V344.21H465.373V350.361ZM532.782 260.664H536.215V264.097H532.782V260.664ZM581.479 342.841H571.923H565.565V317.353H559.205H531.87H525.513V342.841H519.153H501.458H495.098L523.997 301.368H530.357H547.329V296.194H510.05V291.022H531.206L556.141 255.24H549.782H518.592H512.234L503.3 267.673H516.73V271.106H498.779H494.473H473.732V277.258H490.053H496.413L478.785 301.792H482.025V305.085H491.861V308.518H473.951L465.738 319.948H494.684V325.537H467.488V331.125H457.706L444.979 348.837V361.369H480.665V364.804H456.57V368.096H444.979V376.468H451.34H517.869H524.229V376.59H526.489V380.024H538.594V383.457H524.229V386.988H565.565V376.468H571.923H581.479H587.84V354.153H535.988V350.72H587.84V342.841H581.479Z" fill="white"/>
<path d="M491.862 308.518V305.085H482.024V305.225H473.912H469.958L459.379 319.949H465.738L473.951 308.518H491.862Z" fill="#00ACFF"/>
<path d="M516.73 271.107V267.674H503.299L512.234 255.24H505.874L494.474 271.107H498.779H516.73Z" fill="#00ACFF"/>
<path d="M140.232 286.844H149.821V283.41H131.762L145.64 264.097H139.281L125.404 283.41H125.26V283.609L122.936 286.844H125.26H140.232Z" fill="#00ACFF"/>
<path d="M163.998 393.423V376.467H157.638V393.423H145.245V396.856H169.806V393.423H163.998Z" fill="#00ACFF"/>
<path d="M594.199 347.286V342.841H587.839V350.72H589.154H606.044H609.276V347.286H594.199Z" fill="#FF2782"/>
<path d="M217.552 400.291H220.985V396.857H217.552V400.291Z" fill="#FF2782"/>
<path d="M536.216 260.664H532.782V264.097H536.216V260.664Z" fill="#FF2782"/>
<path d="M117.388 272.108H113.955V275.541H117.388V272.108Z" fill="#00ACFF"/>
<path d="M183.079 374.217H186.512V370.784H183.079V374.217Z" fill="#00ACFF"/>
<path d="M500.253 368.096H503.686V364.662H500.253V368.096Z" fill="#00ACFF"/>
<path d="M215.745 264.097H212.312V267.531H215.745V264.097Z" fill="white"/>
<path d="M460.938 289.305H457.505V292.739H460.938V289.305Z" fill="white"/>
<path d="M191.781 297.065H188.348V300.499H191.781V297.065Z" fill="white"/>
<path d="M71.053 323.896H67.6196V327.329H71.053V323.896Z" fill="white"/>
<path d="M492.968 396.857H496.4V393.424H492.968V396.857Z" fill="white"/>
<path d="M580.406 393.856H583.84V390.423H580.406V393.856Z" fill="white"/>
<path d="M286.053 278.617H279.693C277.636 281.617 275.747 284.834 274.073 288.332C271.592 293.509 269.691 299.134 268.301 305.154H274.66C276.049 299.134 277.951 293.509 280.432 288.332C282.105 284.834 283.996 281.617 286.053 278.617Z" fill="#00ACFF"/>
<path d="M303.885 261.452C313.037 255.83 323.406 252.812 334.957 252.338C333.908 252.294 332.862 252.241 331.794 252.241C318.944 252.241 307.518 255.313 297.525 261.452C292.648 264.448 288.298 268.126 284.457 272.466H290.816C294.657 268.126 299.006 264.448 303.885 261.452Z" fill="#00ACFF"/>
<path d="M355.181 297.327C351.607 291.456 346.979 288.081 341.302 287.189C340.194 287.36 339.123 287.615 338.097 287.968C342.358 289.463 345.933 292.581 348.821 297.327C353.033 304.253 355.141 315.211 355.141 330.204C355.141 336.799 354.731 342.611 353.917 347.644H360.275C361.091 342.611 361.499 336.799 361.499 330.204C361.499 315.211 359.39 304.253 355.181 297.327Z" fill="#00ACFF"/>
<path d="M386.416 273.825H392.775C388.66 268.895 383.939 264.753 378.567 261.451C368.571 255.314 357.219 252.242 344.511 252.242C343.432 252.242 342.376 252.295 341.315 252.338C352.746 252.811 363.052 255.83 372.208 261.451C377.58 264.753 382.302 268.895 386.416 273.825Z" fill="#FF2782"/>
<path d="M338.153 286.939C331.281 286.939 325.775 290.027 321.637 296.195H305.62V299.629H319.671C318.864 301.289 318.149 303.126 317.536 305.155H323.895C324.807 302.139 325.931 299.527 327.269 297.327C330.156 292.581 333.765 289.462 338.096 287.969C339.124 287.614 340.193 287.361 341.301 287.189C340.285 287.029 339.237 286.939 338.153 286.939Z" fill="#FF2782"/>
<path d="M404.083 328.471C404.09 329.053 404.12 329.617 404.12 330.203C404.12 336.333 403.71 342.145 402.895 347.645H409.255C409.999 342.618 410.382 337.315 410.444 331.765H424.506V328.471H406.556H404.083Z" fill="#FF2782"/>
<path d="M395.661 288.331C400.689 298.833 403.461 311.077 404.006 325.038H410.365C409.82 311.077 407.046 298.833 402.021 288.331C400.726 285.63 399.304 283.097 397.782 280.693H391.422C392.945 283.097 394.368 285.63 395.661 288.331Z" fill="#FF2782"/>
<path d="M395.301 342.851H391.868V339.417H395.301V342.851ZM379.404 303.085H375.972V299.652H379.404V303.085ZM305.438 278.617H299.286V272.467H305.438V278.617ZM404.082 328.472H393.584V325.037H404.006C403.461 311.076 400.689 298.833 395.661 288.332C394.368 285.631 392.945 283.096 391.422 280.692H397.782H422.281V277.259H410.536H373.244H361.5V273.825H386.416C382.302 268.895 377.581 264.752 372.208 261.452C363.052 255.831 352.746 252.811 341.314 252.339C340.266 252.295 339.221 252.241 338.153 252.241C337.073 252.241 336.017 252.295 334.957 252.339C323.406 252.811 313.037 255.831 303.885 261.452C299.006 264.448 294.657 268.127 290.816 272.467H292.928V278.617H286.053C283.996 281.617 282.105 284.835 280.432 288.332C277.95 293.509 276.049 299.135 274.66 305.155H317.536C318.149 303.127 318.864 301.289 319.67 299.629H305.62V296.195H321.638C325.774 290.028 331.281 286.94 338.153 286.94C339.238 286.94 340.285 287.029 341.302 287.189C346.978 288.083 351.608 291.456 355.181 297.327C359.39 304.253 361.5 315.211 361.5 330.204C361.5 336.799 361.09 342.611 360.276 347.644H402.896C403.709 342.144 404.121 336.333 404.121 330.204C404.121 329.616 404.089 329.053 404.082 328.472" fill="white"/>
<path d="M421.179 305.513H415.028V311.665H421.179V305.513Z" fill="#FF2782"/>
<path d="M545.657 368.348H539.505V374.5H545.657V368.348Z" fill="#FF2782"/>
<path d="M560.7 270.165H565.681V265.182H560.7V270.165Z" fill="#FF2782"/>
<path d="M456.57 368.096V364.803H438.621V368.096V376.467H444.981V368.096H456.57Z" fill="#00ACFF"/>
<path d="M538.595 383.457V380.024H526.49H520.646H517.87V386.988H524.23V383.457H538.595Z" fill="#00ACFF"/>
<path d="M241.871 283.207V281.618H233.009V290.48H234.598V283.207H241.871Z" fill="#00ACFF"/>
<path d="M234.599 283.207V290.48V292.07H243.461V283.207H241.872H234.599Z" fill="#FF2782"/>
<path d="M465.454 417.028H456.592V408.165H465.454V417.028Z" fill="#00ACFF"/>
<path d="M467.044 418.62H458.181V409.757H467.044V418.62Z" fill="#FF2782"/>
<path d="M124.005 226.837H115.143V217.975H124.005V226.837Z" fill="#00ACFF"/>
<path d="M125.596 228.427H116.733V219.564H125.596V228.427Z" fill="#FF2782"/>
<path d="M173.442 450.831H164.58V441.968H173.442V450.831Z" fill="#00ACFF"/>
<path d="M175.032 452.42H166.169V443.557H175.032V452.42Z" fill="#FF2782"/>
</g>
<defs>
<clipPath id="clip0">
<rect width="666.667" height="666.667" fill="white"/>
</clipPath>
</defs>
</svg>
