<svg width="140" height="300" viewBox="0 0 140 300" fill="none" xmlns="http://www.w3.org/2000/svg">
<path d="M117.704 90.2894C126.535 56.3559 137.336 24.9952 137.336 24.9952C138.807 19.1017 121.66 9.74759 99.0382 4.10354C87.7976 1.29855 77.3222 -0.0613521 69.4446 0.00233643C68.4731 3.58145 67.5016 7.16058 66.5292 10.7397C64.2849 19.0084 62.0397 27.2772 59.7953 35.5459C57.2792 44.8149 54.7657 54.0847 52.246 63.3527C52.6236 61.1074 53.0004 58.8622 53.3771 56.6161C56.5167 37.9078 59.6563 19.1995 62.7958 0.490311C58.5906 1.16128 55.922 2.51758 55.4142 4.55472C55.4142 4.55472 50.634 34.6668 43.0614 67.2063C48.6803 67.435 54.275 67.958 59.8482 68.8703C69.1252 70.3889 78.2614 72.7983 87.0558 76.1236C90.7542 77.522 94.4042 79.0676 97.9663 80.7845C89.0364 77.2852 79.7253 74.7807 70.2689 73.2056C60.3837 71.5586 50.3452 71.0007 40.3425 71.5156C40.3443 71.5111 40.3452 71.5066 40.347 71.5021C24.9559 72.357 14.3576 75.8939 13.5673 79.064C12.7385 82.3839 22.3895 85.1001 37.682 88.5913C36.5831 93.1194 35.6278 97.2502 35.5049 98.3796C35.2268 100.958 35.2627 106.082 35.2627 106.082C35.2627 106.082 33.6956 107.924 32.3205 110.358C30.4188 113.728 28.4489 118.206 27.603 120.258C27.0262 121.656 27.4074 123.626 28.9557 124.314C30.7668 125.122 30.2842 124.834 34.8052 126.09C35.4833 129.617 33.1879 131.179 33.2865 132.695C33.3368 133.479 33.8247 134.06 34.2849 134.442C33.918 134.618 33.5556 134.817 33.2139 134.939C32.2837 135.271 31.3463 135.58 30.4313 135.953C28.5754 136.711 26.828 137.673 25.2707 138.941C22.0666 141.551 19.8841 145.081 17.6478 148.496C16.5589 150.159 15.4304 151.785 14.2275 153.368C13.8732 153.835 13.1672 155.107 12.4954 155.096C11.7751 155.084 11.4234 153.655 11.175 153.157C10.3363 151.475 9.16204 151.092 7.29982 151.093C5.51385 151.094 3.60051 151.5 2.05405 152.418C-1.17613 154.337 0.0994409 159.662 1.20726 162.561C2.61289 166.239 5.99735 168.266 9.94424 167.482C13.6902 166.738 15.5829 163.345 17.1913 160.226C19.0705 156.582 20.8879 152.908 22.7627 149.261C24.7325 145.431 26.6638 140.884 30.3219 138.375C31.174 137.79 32.0792 137.283 33.0246 136.864C33.2121 136.782 33.4005 136.722 33.5889 136.66C33.5279 136.88 33.4884 137.114 33.5036 137.381C33.6794 140.417 35.3909 139.8 35.8125 140.767C36.9006 143.265 35.7892 145.334 35.4663 148.696C35.1658 151.82 36.732 153.306 39.6904 153.94C43.0874 154.669 54.4249 152.453 57.6497 150.976C57.9331 151.403 58.3978 154.589 58.9728 158.956V158.955C59.9702 160.572 64.5926 162.999 69.1548 162.999C77.7626 162.999 97.1724 157.822 105.964 147.99C105.965 147.992 105.966 147.994 105.966 147.995C104.578 138.932 104.353 130.052 105.073 128.796C106.074 127.051 113.081 122.415 114.945 107.917C129.16 111.698 138.492 113.568 139.275 110.43C140.095 107.143 131.794 98.5536 117.704 90.2894" fill="white"/>
<path d="M56.2494 168.254L43.5915 173.74C37.2424 187.232 34.1917 210.283 34.1917 210.283L46.5445 210.714L35.9175 218.873C42.6631 264.577 60.1317 300 60.1317 300C60.1317 300 98.2695 233.315 123.214 217.508L105.745 207.439L127.804 210.881L130.994 173.35L115.403 164.373C115.403 164.373 78.0856 207.56 61.1023 264.577C56.0377 239.797 53.8238 206.104 56.2494 168.254" fill="white"/>
<path d="M92.253 171.844C92.1947 169.356 91.9363 167.101 91.591 165.127C91.3093 163.517 89.6991 162.63 88.3662 163.349L76.0196 170.001C75.1844 168.942 73.9125 168.237 72.4584 168.174C70.8258 168.103 69.3502 168.858 68.4299 170.067L62.053 165.218C61.2905 164.639 60.2284 165.073 59.9925 166.069C59.5458 167.959 59.1547 170.154 58.9394 172.61C58.6945 175.402 58.7313 177.921 58.8928 180.077C58.9771 181.194 60.1073 181.794 60.9577 181.176L68.3689 175.792C69.1995 176.934 70.5226 177.703 72.0431 177.768C73.6111 177.837 75.0311 177.141 75.9568 176.017L88.1796 183.177C89.4901 183.944 91.0985 183.159 91.4106 181.589C91.9426 178.904 92.34 175.608 92.253 171.844" fill="white"/>
</svg>
