<svg width="21" height="21" viewBox="0 0 21 21" fill="none" xmlns="http://www.w3.org/2000/svg">
<path d="M20.1211 9.47433H4.22223L13.7382 0.935006C13.8904 0.797366 13.798 0.541748 13.5969 0.541748H11.1921C11.0861 0.541748 10.9856 0.581074 10.9068 0.651298L0.638119 9.86197C0.54407 9.94625 0.468643 10.0504 0.416949 10.1675C0.365255 10.2845 0.338501 10.4117 0.338501 10.5403C0.338501 10.669 0.365255 10.7962 0.416949 10.9132C0.468643 11.0303 0.54407 11.1344 0.638119 11.2187L10.9666 20.4856C11.0073 20.5221 11.0562 20.5417 11.1079 20.5417H13.5942C13.7953 20.5417 13.8876 20.2833 13.7355 20.1485L4.22223 11.6092H20.1211C20.2407 11.6092 20.3385 11.508 20.3385 11.3844V9.69905C20.3385 9.57546 20.2407 9.47433 20.1211 9.47433Z" fill="white"/>
</svg>
