<svg width="50" height="50" viewBox="0 0 50 50" fill="none" xmlns="http://www.w3.org/2000/svg">
<rect width="50" height="50" rx="25" fill="#A8A9AD"/>
<path d="M36.5 13.5V11.25M36.5 9V11.25M36.5 11.25H38.5H39H34" stroke="#1D1C20"/>
<path d="M35.1852 17.6442H34.0613C32.3764 17.6442 30.8744 16.5823 30.3125 14.9938V14.9938C30.2477 14.8125 30.129 14.6557 29.9726 14.5449C29.8162 14.4342 29.6297 14.3748 29.4387 14.375H20.5613C20.1707 14.375 19.8206 14.6231 19.6904 14.9938V14.9938C19.1267 16.5826 17.6235 17.6442 15.9377 17.6442H14.8148C13.5359 17.6442 12.5 18.6892 12.5 19.9794V33.2898C12.5 34.58 13.5359 35.625 14.8148 35.625H35.1852C36.4641 35.625 37.5 34.58 37.5 33.2898V19.9794C37.5 18.6892 36.4641 17.6442 35.1852 17.6442ZM35.4167 33.2898C35.4167 33.4183 35.3125 33.5234 35.1852 33.5234H14.8148C14.6875 33.5234 14.5833 33.4183 14.5833 33.2898V19.9794C14.5833 19.851 14.6875 19.7459 14.8148 19.7459H18.7366C19.624 19.7459 20.4152 19.187 20.7118 18.3506V18.3506V18.3506C21.1089 17.2275 22.1708 16.4766 23.3621 16.4766H26.635C27.8263 16.4766 28.8882 17.2275 29.2853 18.3506V18.3506V18.3506C29.5819 19.187 30.3731 19.7459 31.2605 19.7459H35.1852C35.3125 19.7459 35.4167 19.851 35.4167 19.9794V33.2898ZM25 21.614C22.4421 21.614 20.3704 23.704 20.3704 26.2843C20.3704 28.8647 22.4421 30.9547 25 30.9547C27.5579 30.9547 29.6296 28.8647 29.6296 26.2843C29.6296 23.704 27.5579 21.614 25 21.614ZM25 29.0865C23.4664 29.0865 22.2222 27.8314 22.2222 26.2843C22.2222 24.7373 23.4664 23.4821 25 23.4821C26.5336 23.4821 27.7778 24.7373 27.7778 26.2843C27.7778 27.8314 26.5336 29.0865 25 29.0865Z" fill="#1D1C20"/>
</svg>
