<svg width="17" height="17" viewBox="0 0 17 17" fill="none" xmlns="http://www.w3.org/2000/svg">
<path d="M9.46516 8.13623L16.098 0.457703C16.2091 0.330096 16.1157 0.13623 15.9438 0.13623H13.9275C13.8087 0.13623 13.695 0.187764 13.6167 0.276108L8.14618 6.60985L2.67569 0.276108C2.59989 0.187764 2.48618 0.13623 2.3649 0.13623H0.348524C0.176703 0.13623 0.083212 0.330096 0.19439 0.457703L6.8272 8.13623L0.19439 15.8148C0.169485 15.8432 0.153508 15.878 0.148354 15.915C0.143201 15.952 0.149087 15.9896 0.165316 16.0235C0.181544 16.0573 0.207433 16.086 0.239908 16.1059C0.272383 16.1259 0.31008 16.1364 0.348524 16.1362H2.3649C2.48366 16.1362 2.59736 16.0847 2.67569 15.9964L8.14618 9.66261L13.6167 15.9964C13.6925 16.0847 13.8062 16.1362 13.9275 16.1362H15.9438C16.1157 16.1362 16.2091 15.9424 16.098 15.8148L9.46516 8.13623Z" fill="#FF1D1D"/>
</svg>
