<svg width="20" height="20" viewBox="0 0 20 20" fill="none" xmlns="http://www.w3.org/2000/svg">
<path d="M19.8 10H18.4C18.29 10 18.2 10.09 18.2 10.2V18.2H1.8V1.8H9.8C9.91 1.8 10 1.71 10 1.6V0.2C10 0.09 9.91 0 9.8 0H0.8C0.3575 0 0 0.3575 0 0.8V19.2C0 19.6425 0.3575 20 0.8 20H19.2C19.6425 20 20 19.6425 20 19.2V10.2C20 10.09 19.91 10 19.8 10Z" fill="#A8A9AD"/>
<path d="M6.09587 10.5725L6.04837 13.545C6.04587 13.7675 6.22587 13.95 6.44837 13.95H6.45837L9.40837 13.8775C9.45837 13.875 9.50836 13.855 9.54336 13.82L19.9409 3.445C20.0184 3.3675 20.0184 3.24 19.9409 3.1625L16.8334 0.0575001C16.7934 0.0175001 16.7434 0 16.6909 0C16.6384 0 16.5884 0.0200001 16.5484 0.0575001L6.15337 10.4325C6.11726 10.4703 6.09672 10.5203 6.09587 10.5725V10.5725ZM7.68337 11.1625L16.6909 2.175L17.8209 3.3025L8.80837 12.295L7.66587 12.3225L7.68337 11.1625V11.1625Z" fill="#A8A9AD"/>
</svg>
