<svg width="80" height="66" viewBox="0 0 80 66" fill="none" xmlns="http://www.w3.org/2000/svg">
<path d="M11.0583 4.84135L8.58667 9.01953H14.6875L12.2159 4.84135C11.955 4.40083 11.3192 4.40083 11.0583 4.84135" fill="#8BD9F7"/>
<path d="M16.948 2.2005L12.9141 9.01953H22.1402L18.1055 2.2005C17.8454 1.75998 17.2089 1.75998 16.948 2.2005Z" fill="#8BD9F7"/>
<path d="M11.0583 28.4234L8.58667 32.6016H14.6875L12.2159 28.4234C11.955 27.9829 11.3192 27.9829 11.0583 28.4234" fill="#8BD9F7"/>
<path d="M16.948 25.7825L12.9141 32.6016H22.1402L18.1055 25.7825C17.8454 25.342 17.2089 25.342 16.948 25.7825Z" fill="#8BD9F7"/>
<path d="M15.8322 23.853C15.8322 24.6683 15.1725 25.3291 14.3579 25.3291C13.5439 25.3291 12.8843 24.6683 12.8843 23.853C12.8843 23.0377 13.5439 22.3769 14.3579 22.3769C15.1725 22.3769 15.8322 23.0377 15.8322 23.853Z" fill="#8BD9F7"/>
<path d="M44.5266 34.22H40.4517V30.1374H39.3523V35.3213H44.5266V34.22Z" fill="white"/>
<path d="M77.8832 0.000106792H2.11683C0.948097 0.000106792 0 0.949824 0 2.1213V63.4345C0 64.6059 0.948097 65.5557 2.11683 65.5557H77.8832C79.0519 65.5557 80 64.6059 80 63.4345V2.1213C80 0.949824 79.0519 0.000106792 77.8832 0.000106792" fill="#909499"/>
<path d="M75.718 1.87419H4.28222C3.17983 1.87419 2.28613 2.76867 2.28613 3.87294V61.6821C2.28613 62.7872 3.17983 63.6816 4.28222 63.6816H75.718C76.8204 63.6816 77.7133 62.7872 77.7133 61.6821V3.87294C77.7133 2.76867 76.8204 1.87419 75.718 1.87419Z" fill="black"/>
<path d="M20.5235 38.5125L5.6333 63.6816H36.5719L21.681 38.5125C21.4201 38.072 20.7843 38.072 20.5235 38.5125Z" fill="#909499"/>
<path d="M50.395 25.1185L27.5801 63.6816H74.3666L51.5525 25.1185C51.2916 24.678 50.6558 24.678 50.395 25.1185Z" fill="#909499"/>
<path d="M42.377 19.3123C42.377 23.4464 39.0303 26.7988 34.9032 26.7988C30.7754 26.7988 27.4294 23.4464 27.4294 19.3123C27.4294 15.1774 30.7754 11.8257 34.9032 11.8257C39.0303 11.8257 42.377 15.1774 42.377 19.3123Z" fill="#909499"/>
<path d="M75.7178 1.87405V1.37979H4.282C2.9068 1.37979 1.79248 2.49526 1.79248 3.87281V61.682C1.79248 63.0603 2.90755 64.1758 4.282 64.1758H75.7178C77.093 64.1758 78.2065 63.0596 78.2065 61.682V3.87281C78.2065 2.496 77.093 1.37979 75.7178 1.37979V1.87405V2.36834C76.5474 2.36983 77.2182 3.0418 77.2197 3.87281V61.682C77.2182 62.5138 76.5474 63.1857 75.7178 63.1872H4.282C3.45241 63.1857 2.78083 62.5138 2.77934 61.682V3.87281C2.78083 3.0418 3.45241 2.36983 4.282 2.36834H75.7178V1.87405Z" fill="#909499"/>
<path d="M72.9316 60.897L72.9353 60.9244L73.0005 60.96L72.9316 60.897Z" fill="#FAB9B1"/>
</svg>
