<svg width="19" height="20" viewBox="0 0 19 20" fill="none" xmlns="http://www.w3.org/2000/svg">
<path d="M18.7109 12.542L17.2487 11.292C17.3179 10.8678 17.3537 10.4348 17.3537 10.0017C17.3537 9.56862 17.3179 9.13556 17.2487 8.71142L18.7109 7.46133C18.8212 7.36692 18.9001 7.24118 18.9372 7.10081C18.9743 6.96045 18.9678 6.81213 18.9185 6.67556L18.8984 6.61752C18.4959 5.49251 17.8931 4.4496 17.1193 3.53919L17.0791 3.49231C16.9852 3.38193 16.8601 3.30258 16.7202 3.26472C16.5803 3.22686 16.4323 3.23227 16.2955 3.28024L14.4807 3.92537C13.811 3.37623 13.0632 2.94316 12.2551 2.63957L11.9046 0.742117C11.8782 0.599344 11.8089 0.467996 11.706 0.365523C11.6032 0.263051 11.4716 0.194304 11.3287 0.168416L11.2684 0.157255C10.1054 -0.0525811 8.88208 -0.0525811 7.71905 0.157255L7.65878 0.168416C7.51591 0.194304 7.38429 0.263051 7.28142 0.365523C7.17855 0.467996 7.10929 0.599344 7.08285 0.742117L6.73015 2.6485C5.9285 2.95216 5.18197 3.38499 4.52017 3.92984L2.69192 3.28024C2.55523 3.23189 2.40706 3.22629 2.2671 3.26417C2.12715 3.30205 2.00203 3.38162 1.90838 3.49231L1.8682 3.53919C1.09526 4.45024 0.492605 5.49298 0.0890592 6.61752L0.0689684 6.67556C-0.031485 6.9546 0.0511101 7.26712 0.276572 7.46133L1.75659 8.72481C1.68738 9.14449 1.6539 9.57309 1.6539 9.99946C1.6539 10.4281 1.68738 10.8567 1.75659 11.2741L0.276572 12.5376C0.166287 12.632 0.0873547 12.7577 0.0502707 12.8981C0.0131867 13.0385 0.0197083 13.1868 0.0689684 13.3233L0.0890592 13.3814C0.493105 14.5065 1.09136 15.5445 1.8682 16.4597L1.90838 16.5066C2.00226 16.617 2.12738 16.6963 2.26725 16.7342C2.40712 16.7721 2.55518 16.7666 2.69192 16.7187L4.52017 16.0691C5.1854 16.616 5.92875 17.0491 6.73015 17.3504L7.08285 19.2568C7.10929 19.3996 7.17855 19.5309 7.28142 19.6334C7.38429 19.7359 7.51591 19.8046 7.65878 19.8305L7.71905 19.8417C8.89277 20.0526 10.0947 20.0526 11.2684 19.8417L11.3287 19.8305C11.4716 19.8046 11.6032 19.7359 11.706 19.6334C11.8089 19.5309 11.8782 19.3996 11.9046 19.2568L12.2551 17.3593C13.0628 17.0565 13.8149 16.6221 14.4807 16.0735L16.2955 16.7187C16.4322 16.767 16.5804 16.7726 16.7204 16.7347C16.8603 16.6969 16.9854 16.6173 17.0791 16.5066L17.1193 16.4597C17.8961 15.5423 18.4944 14.5065 18.8984 13.3814L18.9185 13.3233C19.0189 13.0488 18.9363 12.7363 18.7109 12.542V12.542ZM15.6638 8.97483C15.7196 9.31191 15.7486 9.65791 15.7486 10.0039C15.7486 10.3499 15.7196 10.6959 15.6638 11.033L15.5165 11.9282L17.184 13.3546C16.9312 13.937 16.6121 14.4883 16.233 14.9976L14.1615 14.2631L13.4605 14.8391C12.927 15.2766 12.3332 15.6204 11.6903 15.8615L10.8398 16.1807L10.4402 18.346C9.80976 18.4175 9.17324 18.4175 8.54277 18.346L8.14319 16.1762L7.29938 15.8525C6.66318 15.6115 6.07162 15.2677 5.54256 14.8324L4.84162 14.2542L2.75666 14.9953C2.37716 14.4841 2.06018 13.9328 1.8057 13.3524L3.49108 11.9125L3.34598 11.0196C3.29241 10.687 3.26339 10.3432 3.26339 10.0039C3.26339 9.66238 3.29017 9.32084 3.34598 8.98823L3.49108 8.09531L1.8057 6.65547C2.05795 6.07284 2.37716 5.5237 2.75666 5.0125L4.84162 5.75363L5.54256 5.17546C6.07162 4.74016 6.66318 4.39639 7.29938 4.1553L8.14542 3.83608L8.545 1.66629C9.17228 1.59485 9.81295 1.59485 10.4425 1.66629L10.842 3.83162L11.6925 4.15084C12.3332 4.39192 12.9292 4.7357 13.4628 5.17323L14.1637 5.74916L16.2353 5.01473C16.6148 5.52593 16.9317 6.07731 17.1862 6.65771L15.5187 8.08414L15.6638 8.97483ZM9.49596 5.85185C7.32617 5.85185 5.56712 7.6109 5.56712 9.78069C5.56712 11.9505 7.32617 13.7095 9.49596 13.7095C11.6658 13.7095 13.4248 11.9505 13.4248 9.78069C13.4248 7.6109 11.6658 5.85185 9.49596 5.85185ZM11.2639 11.5487C11.0321 11.7812 10.7565 11.9656 10.4531 12.0913C10.1496 12.217 9.82437 12.2814 9.49596 12.2809C8.82851 12.2809 8.20123 12.0197 7.72798 11.5487C7.49543 11.3168 7.31102 11.0412 7.18536 10.7378C7.0597 10.4344 6.99528 10.1091 6.99579 9.78069C6.99579 9.11323 7.25697 8.48596 7.72798 8.01271C8.20123 7.53946 8.82851 7.28052 9.49596 7.28052C10.1634 7.28052 10.7907 7.53946 11.2639 8.01271C11.4965 8.2446 11.6809 8.52018 11.8066 8.8236C11.9322 9.12701 11.9966 9.45228 11.9961 9.78069C11.9961 10.4481 11.735 11.0754 11.2639 11.5487Z" fill="white"/>
</svg>
