<svg width="850" height="525" viewBox="0 0 850 525" fill="none" xmlns="http://www.w3.org/2000/svg">
<path d="M768.714 161.504C769.08 161.138 769.686 161.138 770.051 161.504C770.418 161.881 770.418 162.477 770.051 162.843L767.043 165.851C766.68 166.218 766.073 166.218 765.706 165.851C765.339 165.485 765.339 164.891 765.706 164.514L768.714 161.504ZM772.169 167.958C772.694 167.958 773.117 168.38 773.117 168.894C773.117 169.422 772.694 169.844 772.169 169.844H767.912C767.4 169.844 766.975 169.422 766.975 168.894C766.975 168.38 767.4 167.958 767.912 167.958H772.169ZM770.051 174.957C770.418 175.324 770.418 175.919 770.051 176.284C769.686 176.661 769.08 176.661 768.714 176.284L765.706 173.288C765.339 172.91 765.339 172.316 765.706 171.949C766.073 171.572 766.68 171.572 767.043 171.949L770.051 174.957ZM763.612 178.401C763.612 178.927 763.191 179.351 762.662 179.351C762.137 179.351 761.715 178.927 761.715 178.401V174.158C761.715 173.632 762.137 173.208 762.662 173.208C763.191 173.208 763.612 173.632 763.612 174.158V178.401ZM756.612 176.284C756.246 176.661 755.64 176.661 755.275 176.284C754.906 175.919 754.906 175.324 755.275 174.957L758.283 171.949C758.647 171.572 759.241 171.572 759.62 171.949C759.987 172.316 759.987 172.91 759.62 173.288L756.612 176.284ZM753.157 169.844C752.629 169.844 752.207 169.422 752.207 168.894C752.207 168.38 752.629 167.958 753.157 167.958H757.412C757.926 167.958 758.351 168.38 758.351 168.894C758.351 169.422 757.926 169.844 757.412 169.844H753.157ZM755.275 162.843C754.906 162.477 754.906 161.881 755.275 161.504C755.64 161.138 756.246 161.138 756.612 161.504L759.62 164.514C759.987 164.891 759.987 165.485 759.62 165.851C759.241 166.218 758.647 166.218 758.283 165.851L755.275 162.843ZM761.715 159.389C761.715 158.873 762.137 158.451 762.662 158.451C763.191 158.451 763.612 158.873 763.612 159.389V163.644C763.612 164.17 763.191 164.593 762.662 164.593C762.137 164.593 761.715 164.17 761.715 163.644V159.389Z" fill="#8B77E6"/>
<path fill-rule="evenodd" clip-rule="evenodd" d="M151.076 0.430115C93.0798 0.430115 45.6418 47.8831 45.6418 105.884C45.6418 163.873 93.0798 211.326 151.076 211.326C162.722 211.326 172.24 220.856 172.24 232.489C172.24 244.135 162.722 253.652 151.076 253.652H95.9053C67.617 253.652 44.4629 276.795 44.4629 305.1C44.4629 333.389 67.617 356.531 95.9053 356.531C120.374 356.531 140.393 376.555 140.393 401.024C140.393 445.672 176.918 482.201 221.554 482.201H245.828H603.293H698.042C756.027 482.201 803.479 434.748 803.479 376.746C803.479 318.758 756.027 271.305 698.042 271.305H623.686C612.056 271.305 602.526 261.775 602.526 250.141C602.526 238.495 612.056 228.977 623.686 228.977H642.576C670.864 228.977 694.014 205.833 694.014 177.531C694.014 149.276 670.921 126.143 642.665 126.098H637.211C612.741 126.098 592.721 106.079 592.721 81.6088C592.721 36.9574 556.196 0.430115 511.549 0.430115H151.076Z" fill="#696969"/>
<path fill-rule="evenodd" clip-rule="evenodd" d="M762.662 230.316C790.804 230.316 813.625 207.504 813.625 179.352C813.625 151.209 790.804 128.386 762.662 128.386C734.523 128.386 711.702 151.209 711.702 179.352C711.702 207.504 734.523 230.316 762.662 230.316Z" fill="white"/>
<path fill-rule="evenodd" clip-rule="evenodd" d="M170.719 57.9053H220.09V72.8677H170.719V57.9053Z" fill="white"/>
<path fill-rule="evenodd" clip-rule="evenodd" d="M97.3918 75.8654H146.775V90.8291H97.3918V75.8654Z" fill="white"/>
<path fill-rule="evenodd" clip-rule="evenodd" d="M149.121 75.8654H198.493V90.8291H149.121V75.8654Z" fill="white"/>
<path fill-rule="evenodd" clip-rule="evenodd" d="M118.99 93.8146H168.362V108.778H118.99V93.8146Z" fill="white"/>
<path fill-rule="evenodd" clip-rule="evenodd" d="M97.3918 111.775H146.775V126.738H97.3918V111.775Z" fill="white"/>
<path fill-rule="evenodd" clip-rule="evenodd" d="M149.121 111.775H198.493V126.738H149.121V111.775Z" fill="white"/>
<path fill-rule="evenodd" clip-rule="evenodd" d="M202.736 386.299H252.119V401.253H202.736V386.299Z" fill="#BBBBF6"/>
<path fill-rule="evenodd" clip-rule="evenodd" d="M254.465 386.299H303.846V401.253H254.465V386.299Z" fill="#BBBBF6"/>
<path fill-rule="evenodd" clip-rule="evenodd" d="M181.151 404.25H230.523V419.211H181.151V404.25Z" fill="#BBBBF6"/>
<path fill-rule="evenodd" clip-rule="evenodd" d="M232.879 404.25H282.251V419.211H232.879V404.25Z" fill="white"/>
<path fill-rule="evenodd" clip-rule="evenodd" d="M254.465 422.209H303.846V437.173H254.465V422.209Z" fill="white"/>
<path fill-rule="evenodd" clip-rule="evenodd" d="M181.151 440.158H230.523V455.122H181.151V440.158Z" fill="#BBBBF6"/>
<path fill-rule="evenodd" clip-rule="evenodd" d="M232.879 440.158H282.251V455.122H232.879V440.158Z" fill="white"/>
<path fill-rule="evenodd" clip-rule="evenodd" d="M286.632 45.8583H503.977C509.524 45.8583 514.055 50.3999 514.055 55.9367V365.971H521.786C525.504 365.971 528.55 369.026 528.55 372.745V400.428C528.55 404.147 525.504 407.191 521.786 407.191H268.82C265.103 407.191 262.061 404.147 262.061 400.428V372.745C262.061 369.026 265.103 365.971 268.82 365.971H276.553V55.9367C276.553 50.3999 281.094 45.8583 286.632 45.8583Z" fill="#BBBBF6"/>
<path fill-rule="evenodd" clip-rule="evenodd" d="M281.095 43.5233H498.441C503.988 43.5233 508.517 48.0542 508.517 53.591V368.43C508.517 373.968 503.988 378.498 498.441 378.498H281.095C275.547 378.498 271.017 373.968 271.017 368.43V53.591C271.017 48.0542 275.547 43.5233 281.095 43.5233Z" fill="#F4F5F9"/>
<path fill-rule="evenodd" clip-rule="evenodd" d="M289.435 350.082H490.101V218.705H289.435V350.082Z" fill="#C8C8C8"/>
<path fill-rule="evenodd" clip-rule="evenodd" d="M289.435 222.113H490.101V61.9328H289.435V222.113Z" fill="#E6E6F9"/>
<path fill-rule="evenodd" clip-rule="evenodd" d="M470.312 81.7218H399.663V132.127H470.312V81.7218ZM399.661 202.323H470.311V151.919H399.661V202.323ZM309.224 202.323H379.872V151.919H309.224V202.323ZM309.224 132.127H379.872V81.7218H309.224V132.127Z" fill="#001A5B"/>
<path fill-rule="evenodd" clip-rule="evenodd" d="M430.103 151.918L399.662 182.36V151.918H430.103ZM341.757 193.926H327.527L369.531 151.918H379.872V155.808L341.757 193.926ZM379.872 193.926H355.244L379.872 169.296V193.926ZM431.326 90.1195H445.558L403.551 132.128H399.662V121.786L431.326 90.1195ZM462.303 119.715L449.892 132.128H417.038L459.044 90.1195H462.303V119.715Z" fill="#BBBBF6"/>
<path fill-rule="evenodd" clip-rule="evenodd" d="M263.284 363.638H516.254C519.969 363.638 523.01 366.679 523.01 370.398V398.083C523.01 401.801 519.969 404.856 516.254 404.856H263.284C259.566 404.856 256.524 401.801 256.524 398.083V370.398C256.524 366.679 259.566 363.638 263.284 363.638Z" fill="#DEDFFD"/>
<path fill-rule="evenodd" clip-rule="evenodd" d="M396.676 235.304L394.057 235.578L392.444 235.522L390.831 235.452L388.246 234.972L373.466 219.848L339.492 234.812C340.533 288.212 334.951 313.268 328.396 350.082H431.612C431.749 334.224 438.145 310.739 439.482 297.996L445.295 238.975L412.6 221.382L396.676 235.304Z" fill="#443572"/>
<path fill-rule="evenodd" clip-rule="evenodd" d="M402.922 350.081H421.556C425.595 346.74 429.531 343.789 432.046 342.621C433.524 327.532 438.337 308.863 439.482 297.996L439.643 296.323C439.23 292.251 438.772 287.859 438.267 283.123C436.394 265.609 440.466 253.94 444.504 246.996L445.295 238.976L412.6 221.381L407.451 225.888L405.678 234.332C405.678 234.332 423.352 247.968 425.493 255.427C427.62 262.885 420.162 314.217 414.842 336.374C413.538 341.799 409.007 346.329 402.922 350.081Z" fill="#31275B"/>
<path fill-rule="evenodd" clip-rule="evenodd" d="M339.526 236.962C340.064 269.772 338.062 291.782 334.882 312.696C334.882 312.696 352.224 247.83 350.302 246.057C348.803 244.673 346.927 243.117 339.526 236.962Z" fill="#31275B"/>
<path fill-rule="evenodd" clip-rule="evenodd" d="M411.124 217.595C399.24 211.888 387.537 211.429 375.24 216.176L377.115 221.85L408.814 223.097L411.124 217.595Z" fill="#B1AEC1"/>
<path fill-rule="evenodd" clip-rule="evenodd" d="M396.676 235.304L394.057 235.578L390.831 235.452L388.247 234.972L378.317 224.813L376.761 225.226L373.282 229.447C373.282 229.447 380.124 247.167 380.536 247.774C380.958 248.38 381.724 248.71 382.915 247.385C384.093 246.046 387.823 241.699 387.823 241.699C387.823 241.699 388.898 240.658 389.332 241.905C389.768 243.139 395.212 239.995 395.212 239.995L395.544 241.184C395.544 241.184 396.391 240.235 397.145 241.539C397.89 242.843 401.608 248.482 401.87 248.734C402.133 248.997 403.3 249.856 404.203 248.175C405.016 246.629 414.762 226.907 416.455 223.464L412.6 221.382L396.676 235.304Z" fill="#31275B"/>
<path fill-rule="evenodd" clip-rule="evenodd" d="M396.676 235.304L394.057 235.578L390.831 235.452L388.247 234.972L387.262 233.966L384.94 237.626C384.94 237.626 389.721 239.387 389.551 243.632L380.216 350.082H385.362L394.698 243.838C395.064 239.606 399.766 238.209 399.766 238.209L397.741 234.377L396.676 235.304Z" fill="#31275B"/>
<path fill-rule="evenodd" clip-rule="evenodd" d="M394.183 191.432C401.665 191.729 407.555 198.101 407.258 205.583L406.548 223.589C406.251 231.071 399.891 236.952 392.398 236.665C384.917 236.368 379.037 229.996 379.323 222.516L380.033 204.508C380.331 197.027 386.702 191.133 394.183 191.432Z" fill="#E76D60"/>
<path fill-rule="evenodd" clip-rule="evenodd" d="M389.344 233.759L390.912 233.566C390.912 233.566 391.209 233.907 391.232 234.469C391.256 235.028 391.221 236.688 391.221 236.688C390.637 236.869 387.56 237.374 387.675 236.94C387.697 236.836 389.344 233.759 389.344 233.759Z" fill="#31275B"/>
<path fill-rule="evenodd" clip-rule="evenodd" d="M395.681 234.01L394.137 233.691C394.137 233.691 393.816 234.01 393.748 234.571C393.68 235.132 393.576 236.78 393.576 236.78C394.137 237.248 397.18 237.753 397.1 237.317C397.077 237.213 395.681 234.01 395.681 234.01Z" fill="#31275B"/>
<path fill-rule="evenodd" clip-rule="evenodd" d="M411.124 217.595C411.296 217.755 413.093 221.209 414.03 222.88C414.03 222.88 414.888 224.252 414.132 226.472C413.378 228.703 403.895 246.811 403.895 246.811C403.895 246.811 403.231 247.774 402.27 246.778C401.298 245.784 394.137 233.691 394.137 233.691L409.203 219.002C409.911 218.168 410.964 217.435 411.124 217.595Z" fill="white"/>
<path fill-rule="evenodd" clip-rule="evenodd" d="M375.239 216.176C375.114 216.232 372.986 219.631 371.922 221.221C371.922 221.221 370.962 222.526 371.545 224.802C372.128 227.078 380.147 245.886 380.147 245.886C380.147 245.886 380.732 246.882 381.771 245.965C382.812 245.05 390.912 233.566 390.912 233.566L377.047 217.731C376.121 216.553 375.354 216.12 375.239 216.176Z" fill="white"/>
<path fill-rule="evenodd" clip-rule="evenodd" d="M367.267 174.443C367.06 174.443 366.854 174.443 366.649 174.454H366.637C362.863 174.695 359.614 177.509 358.973 181.4C358.218 185.93 361.284 190.197 365.814 190.951C370.344 191.696 374.611 188.629 375.365 184.099C375.789 181.468 374.941 178.928 373.26 177.109C373.112 179.568 372.3 182.509 369.155 182.359L369.931 177.635C370.252 175.725 368.582 174.581 367.267 174.443Z" fill="#E76D60"/>
<path fill-rule="evenodd" clip-rule="evenodd" d="M426.59 183.057C426.785 183.115 426.98 183.185 427.172 183.252H427.186C430.742 184.556 433.054 188.172 432.561 192.095C431.989 196.637 427.837 199.863 423.285 199.291C418.732 198.719 415.507 194.566 416.078 190.014C416.41 187.371 417.954 185.174 420.081 183.905C419.522 186.307 419.464 189.361 422.518 190.117L423.124 185.357C423.365 183.434 425.286 182.817 426.59 183.057Z" fill="#E76D60"/>
<path fill-rule="evenodd" clip-rule="evenodd" d="M402.888 137.686C387.411 135.444 372.907 146.265 370.665 161.745L366.947 187.346C364.693 202.826 375.526 217.331 391.003 219.575C406.48 221.827 420.974 210.994 423.226 195.516L426.944 169.925C429.186 154.447 418.365 139.94 402.888 137.686Z" fill="#FCB187"/>
<path fill-rule="evenodd" clip-rule="evenodd" d="M387.033 218.705C388.313 219.083 389.642 219.379 391.003 219.575C406.48 221.827 420.974 210.994 423.226 195.516L426.943 169.925C427.62 165.291 427.115 160.75 425.675 156.597C414.305 153.21 404.616 150.487 404.616 150.487C404.616 150.487 368.765 150.454 372.597 160.361L373.616 162.007C373.616 162.007 376.704 159.194 382.183 160.522C387.674 161.859 405.886 166.595 411.902 168.826C417.919 171.069 419.522 175.543 418.617 181.616C417.702 187.678 418.343 190.081 419.84 191.089C419.84 191.089 417.53 218.705 387.033 218.705Z" fill="#F49677"/>
<path fill-rule="evenodd" clip-rule="evenodd" d="M386.724 198.032C385.982 202.026 388.623 205.869 392.616 206.611C396.62 207.356 400.452 204.714 401.195 200.72H401.183C401.309 200.034 400.853 199.36 400.165 199.235L388.222 197.014C387.536 196.888 386.862 197.347 386.736 198.032H386.724Z" fill="white"/>
<path fill-rule="evenodd" clip-rule="evenodd" d="M388.372 204.164C389.435 205.4 390.9 206.292 392.616 206.611C394.023 206.875 395.407 206.715 396.642 206.234C396.367 204.644 394.949 203.226 393.005 202.791C391.152 202.378 389.343 202.963 388.372 204.164Z" fill="white"/>
<path fill-rule="evenodd" clip-rule="evenodd" d="M400.326 199.279L389.092 197.197C388.68 198.399 389.024 199.76 389.813 200.195C390.761 200.709 398.93 202.013 399.628 201.476C399.96 201.213 400.189 200.229 400.326 199.279Z" fill="white"/>
<path fill-rule="evenodd" clip-rule="evenodd" d="M410.838 195.139C408.803 194.806 406.881 196.191 406.537 198.227C406.205 200.264 407.591 202.186 409.626 202.527C411.663 202.86 413.584 201.476 413.916 199.439C414.258 197.402 412.875 195.482 410.838 195.139Z" fill="#E76D60"/>
<path fill-rule="evenodd" clip-rule="evenodd" d="M379.094 189.91C377.059 189.577 375.136 190.963 374.793 193C374.461 195.035 375.835 196.958 377.882 197.3C379.919 197.632 381.84 196.248 382.172 194.212C382.515 192.176 381.131 190.254 379.094 189.91Z" fill="#E76D60"/>
<path fill-rule="evenodd" clip-rule="evenodd" d="M379.45 176.571C378.911 176.742 378.34 176.457 378.168 175.931C377.996 175.404 378.283 174.831 378.809 174.661C381.657 173.676 385.215 174.031 387.594 175.964C388.018 176.32 388.086 176.96 387.732 177.383C387.388 177.818 386.748 177.886 386.313 177.532C384.39 175.964 381.725 175.861 379.45 176.571ZM415.38 181.787C413.39 180.46 410.792 179.797 408.516 180.759C408.003 180.976 407.406 180.724 407.189 180.208C406.973 179.705 407.224 179.112 407.739 178.893C410.554 177.716 414.076 178.378 416.525 180.13C416.982 180.45 417.095 181.078 416.776 181.537C416.454 181.994 415.827 182.108 415.38 181.787ZM413.172 190.86C413.276 190.162 413.104 189.465 412.68 188.903C412.256 188.343 411.638 187.977 410.954 187.873C410.256 187.77 409.558 187.954 408.997 188.366C408.436 188.788 408.07 189.406 407.967 190.106C407.887 190.654 407.373 191.043 406.823 190.962C406.263 190.884 405.886 190.367 405.965 189.807C406.138 188.584 406.789 187.485 407.784 186.74C408.78 186.008 410.014 185.689 411.239 185.87C412.463 186.044 413.561 186.695 414.305 187.692C415.049 188.687 415.356 189.922 415.174 191.146C415.094 191.706 414.58 192.084 414.03 192.003C413.481 191.924 413.092 191.41 413.172 190.86ZM384.185 186.65C384.276 185.952 384.105 185.255 383.682 184.693C383.27 184.133 382.652 183.767 381.954 183.664C381.257 183.562 380.559 183.744 379.998 184.156C379.438 184.578 379.071 185.198 378.969 185.896C378.889 186.445 378.373 186.822 377.826 186.74C377.277 186.662 376.886 186.146 376.968 185.597C377.15 184.373 377.802 183.274 378.785 182.53C379.781 181.799 381.016 181.478 382.24 181.663C383.475 181.834 384.562 182.485 385.306 183.482C386.05 184.477 386.359 185.712 386.188 186.936C386.108 187.485 385.592 187.873 385.031 187.794C384.482 187.714 384.105 187.199 384.185 186.65Z" fill="#31275B"/>
<path fill-rule="evenodd" clip-rule="evenodd" d="M367.633 182.611C367.633 182.611 372.082 181.512 373.134 174.317C374.176 167.11 373.912 168.884 374.461 165.132C375.011 161.378 378.568 155.179 386.187 156.289C393.805 157.397 399.903 158.278 399.903 158.278C399.903 158.278 406 159.16 413.618 160.269C421.225 161.378 422.884 168.335 422.335 172.086C421.798 175.839 422.048 174.065 421.008 181.272C419.956 188.468 423.913 190.791 423.913 190.791C424.749 185.081 426.807 183.092 426.807 183.092C426.807 183.092 427.916 175.45 428.89 168.769C429.86 162.1 429.291 152.857 421.42 145.42C413.549 137.996 403.048 136.577 403.048 136.577C403.048 136.577 392.593 134.953 382.927 139.837C373.272 144.71 370.092 153.416 369.119 160.098C368.147 166.767 367.037 174.408 367.037 174.408C367.037 174.408 368.456 176.902 367.633 182.611Z" fill="#31275B"/>
<path fill-rule="evenodd" clip-rule="evenodd" d="M386.187 156.288C386.187 156.288 398.988 170.268 418.273 162.065C418.273 162.065 426.522 157.204 429.085 160.922C429.085 160.922 434.839 145.877 421.901 141.988C421.901 141.988 424.874 140.5 424.702 138.567C424.542 136.622 420.265 130.835 406.926 133.74C406.926 133.74 407.372 128.947 403.095 127.563C398.826 126.177 384.563 131.017 381.165 140.811C381.165 140.811 378.397 148.006 386.187 156.288Z" fill="#443572"/>
<path fill-rule="evenodd" clip-rule="evenodd" d="M430.217 151.46C430.126 150.762 429.977 150.065 429.769 149.379C426.041 151.335 418.045 154.011 405.623 150.774C394.64 147.924 393.748 136.873 394.71 128.728C390.774 130.194 386.484 132.778 383.647 136.37C383.67 140.363 385.718 146.162 394.755 152.271C407.556 160.91 423.743 154.629 430.217 151.46Z" fill="#4F4D6E"/>
<path fill-rule="evenodd" clip-rule="evenodd" d="M264.611 117.633L264.657 119.818C264.657 119.818 265.732 120.195 266.522 121.968C267.322 123.741 267.689 125.045 267.689 125.045L279.104 120.903L279.15 120.012L278.247 117.289C278.247 117.289 277.995 116.808 278.259 116.478L272.47 113.927L264.611 117.633Z" fill="#FCB187"/>
<path fill-rule="evenodd" clip-rule="evenodd" d="M371.316 220.798C371.316 220.798 316.694 192.244 308.035 182.543C299.362 172.853 295.325 159.274 282.112 120.47C282.112 120.47 281.633 118.662 278.83 118.855C276.015 119.04 268.146 121.819 267.071 123.146C265.984 124.473 265.389 125.824 265.778 127.653C266.167 129.484 281.747 189.91 286.164 198.946C290.589 207.984 330.57 245.165 338.886 253.836C347.201 262.508 371.316 220.798 371.316 220.798Z" fill="#443572"/>
<path fill-rule="evenodd" clip-rule="evenodd" d="M276.53 119.269C273.043 120.125 267.928 122.094 267.071 123.147C265.984 124.473 265.389 125.823 265.777 127.654C266.166 129.483 281.747 189.909 286.163 198.947C290.588 207.985 330.569 245.164 338.886 253.837C341.482 256.548 345.624 254.329 350.097 250.004C350.462 247.727 350.566 246.298 350.302 246.057C348.381 244.283 345.83 242.213 331.771 230.499C317.712 218.784 295.874 198.65 292.26 191.203C288.633 183.744 277.445 144.332 273.831 132.517C270.342 121.145 276.084 119.383 276.53 119.269Z" fill="#31275B"/>
<path fill-rule="evenodd" clip-rule="evenodd" d="M281.232 104.624C282.022 100.346 284.377 97.3501 285.351 96.343C286.62 95.0041 280.523 91.2964 278.144 97.7258C278.144 97.7258 275.994 100.152 274.758 99.4431C273.533 98.733 271.578 79.9244 271.361 77.8768C271.154 75.8185 268.764 75.6693 268.123 76.2541C267.493 76.8376 267.837 79.8112 268.02 83.5974C268.203 87.397 268.362 91.6748 268.032 92.0518C267.71 92.4302 266.842 92.4302 265.939 90.3932C265.024 88.3455 260.436 76.9056 259.418 76.3447C258.4 75.7732 256.523 76.8257 256.695 78.7467C256.877 80.6692 261.945 92.0412 262.129 93.6998C262.311 95.3691 260.665 95.2892 259.921 94.3859C259.177 93.4813 251.948 81.9281 251.009 81.3673C250.071 80.8064 248.196 81.9401 248.894 83.8839C249.591 85.8303 256.054 97.1769 256.009 98.1388C255.974 99.0887 254.715 99.8201 252.611 98.332C250.495 96.8465 246.48 93.2655 245.691 93.2295C244.912 93.1962 243.896 95.5996 245.77 97.51C247.647 99.4204 252.131 104.316 252.702 105.128C255.722 109.396 257.278 114.108 260.104 117.117C261.122 118.204 262.448 119.028 263.936 119.577C267.471 120.881 271.897 120.664 275.296 118.834C281.187 115.642 280.134 110.517 281.232 104.624Z" fill="#FCB187"/>
<path fill-rule="evenodd" clip-rule="evenodd" d="M372.334 360.549L368.719 363.637H338.577C338.577 363.637 339.744 359.907 341.723 358.741C341.723 358.741 342.513 358.363 343.508 358.363C343.508 358.363 344.434 357.137 345.84 356.558C347.259 355.972 354.283 354.268 357.955 353.628C361.638 352.987 365.196 354.268 366.958 354.268C368.719 354.268 371.431 353.891 371.431 353.891L372.334 360.549Z" fill="#FCB187"/>
<path fill-rule="evenodd" clip-rule="evenodd" d="M445.295 238.976C445.295 238.976 450.842 242.887 453.496 254.705C456.16 266.536 462.875 326.605 464.145 337.039C465.425 347.484 465.004 363.637 442 363.637H380.651H368.719V352.917C368.719 350.08 370.526 349.132 372.391 349.132C374.257 349.132 430.23 343.055 432.891 342.313C435.546 341.57 436.829 340.082 436.933 336.878C437.048 333.686 427.884 296.727 425.961 282.884C424.051 269.04 432.137 238.576 445.295 238.976Z" fill="#443572"/>
<path fill-rule="evenodd" clip-rule="evenodd" d="M464.546 342.176C464.764 352.061 461.467 363.637 442 363.637H380.65H368.719V355.217C370.514 357.461 374.118 360.022 381.176 360.022H438.91C447.741 360.022 464.226 353.628 464.546 342.176Z" fill="#31275B"/>
<path fill-rule="evenodd" clip-rule="evenodd" d="M425.961 282.884C427.264 292.24 431.864 312.166 434.676 325.084C436.027 331.273 436.963 335.851 436.933 336.878C436.841 339.818 435.754 341.317 433.51 342.119C439.059 341.203 440.937 338.606 441.884 335.093C442.709 332.109 441.978 319.548 439.644 296.323C439.229 292.251 438.772 287.849 438.268 283.124C436.395 265.609 440.466 253.941 444.503 246.996C445.74 244.867 446.976 243.175 448.027 241.905C446.495 239.823 445.295 238.976 445.295 238.976C432.137 238.576 424.051 269.04 425.961 282.884Z" fill="#31275B"/>
<path fill-rule="evenodd" clip-rule="evenodd" d="M389.985 193.331C389.985 193.331 392.49 190.722 393.29 190.024C394.092 189.338 394.252 190.128 394.16 191.169C394.068 192.209 394.332 194.213 393.771 194.68C393.21 195.161 390.443 194.68 389.859 194.441C389.275 194.213 389.985 193.331 389.985 193.331Z" fill="#FCCCB1"/>
<path fill-rule="evenodd" clip-rule="evenodd" d="M43.3305 396.379H48.0317C48.8909 396.379 49.5996 397.086 49.5996 397.946V402.66C49.5996 403.516 48.8909 404.227 48.0317 404.227H43.3305C42.462 404.227 41.7639 403.516 41.7639 402.66V397.946C41.7639 397.086 42.462 396.379 43.3305 396.379Z" fill="white"/>
<path fill-rule="evenodd" clip-rule="evenodd" d="M59.403 396.379H64.1162C64.9741 396.379 65.6828 397.086 65.6828 397.946V402.66C65.6828 403.516 64.9741 404.227 64.1162 404.227H59.403C58.5451 404.227 57.8364 403.516 57.8364 402.66V397.946C57.8364 397.086 58.5451 396.379 59.403 396.379Z" fill="white"/>
<path fill-rule="evenodd" clip-rule="evenodd" d="M75.4754 396.379H80.1872C81.0465 396.379 81.7552 397.086 81.7552 397.946V402.66C81.7552 403.516 81.0465 404.227 80.1872 404.227H75.4754C74.6175 404.227 73.9075 403.516 73.9075 402.66V397.946C73.9075 397.086 74.6175 396.379 75.4754 396.379Z" fill="#DED8F9"/>
<path fill-rule="evenodd" clip-rule="evenodd" d="M91.5588 396.379H96.26C97.1299 396.379 97.8279 397.086 97.8279 397.946V402.66C97.8279 403.516 97.1299 404.227 96.26 404.227H91.5588C90.6902 404.227 89.9922 403.516 89.9922 402.66V397.946C89.9922 397.086 90.6902 396.379 91.5588 396.379Z" fill="#DED8F9"/>
<path fill-rule="evenodd" clip-rule="evenodd" d="M184.777 193.136H189.49C190.348 193.136 191.057 193.845 191.057 194.704V199.416C191.057 200.274 190.348 200.985 189.49 200.985H184.777C183.919 200.985 183.209 200.274 183.209 199.416V194.704C183.209 193.845 183.919 193.136 184.777 193.136Z" fill="#F1EFFD"/>
<path fill-rule="evenodd" clip-rule="evenodd" d="M200.861 193.136H205.562C206.432 193.136 207.13 193.845 207.13 194.704V199.416C207.13 200.274 206.432 200.985 205.562 200.985H200.861C199.991 200.985 199.294 200.274 199.294 199.416V194.704C199.294 193.845 199.991 193.136 200.861 193.136Z" fill="#F1EFFD"/>
<path fill-rule="evenodd" clip-rule="evenodd" d="M216.933 193.136H221.646C222.504 193.136 223.212 193.845 223.212 194.704V199.416C223.212 200.274 222.504 200.985 221.646 200.985H216.933C216.073 200.985 215.365 200.274 215.365 199.416V194.704C215.365 193.845 216.073 193.136 216.933 193.136Z" fill="#F1EFFD"/>
<path fill-rule="evenodd" clip-rule="evenodd" d="M233.016 193.136H237.717C238.575 193.136 239.284 193.845 239.284 194.704V199.416C239.284 200.274 238.575 200.985 237.717 200.985H233.016C232.146 200.985 231.448 200.274 231.448 199.416V194.704C231.448 193.845 232.146 193.136 233.016 193.136Z" fill="#F1EFFD"/>
<path fill-rule="evenodd" clip-rule="evenodd" d="M639.966 126.098V228.977H623.686C612.056 228.977 602.526 238.495 602.526 250.141C602.526 261.775 612.056 271.305 623.686 271.305H639.966V482.201H603.293H546.773V8.51807C573.905 21.6966 592.721 49.5524 592.721 81.6074C592.721 106.079 612.741 126.098 637.211 126.098H639.966Z" fill="white"/>
<path fill-rule="evenodd" clip-rule="evenodd" d="M554.903 13.0722V482.202H538.636V5.10809C544.382 7.15842 549.837 9.84421 554.903 13.0722Z" fill="#696969"/>
<path fill-rule="evenodd" clip-rule="evenodd" d="M575.003 31.1352V482.202H558.725V15.6559C564.832 20.0496 570.314 25.2666 575.003 31.1352Z" fill="#696969"/>
<path fill-rule="evenodd" clip-rule="evenodd" d="M595.102 95.93V482.202H578.825V36.3282C587.585 49.2776 592.722 64.8715 592.722 81.6084C592.722 86.6083 593.557 91.423 595.102 95.93Z" fill="#696969"/>
<path fill-rule="evenodd" clip-rule="evenodd" d="M615.199 120.229V230.774C607.755 234.057 602.525 241.516 602.525 250.142C602.525 258.767 607.755 266.225 615.199 269.509V482.202H603.292H598.921V104.19C602.869 110.836 608.486 116.373 615.199 120.229Z" fill="#696969"/>
<path fill-rule="evenodd" clip-rule="evenodd" d="M635.298 271.305V482.202H619.021V270.778C620.519 271.122 622.086 271.305 623.686 271.305H635.298ZM635.298 126.053V228.978H623.686C622.086 228.978 620.519 229.159 619.021 229.504V122.184C624.03 124.44 629.522 125.801 635.298 126.053Z" fill="#696969"/>
<path fill-rule="evenodd" clip-rule="evenodd" d="M417.165 444.54H421.878C422.736 444.54 423.445 445.237 423.445 446.107V450.808C423.445 451.677 422.736 452.377 421.878 452.377H417.165C416.306 452.377 415.597 451.677 415.597 450.808V446.107C415.597 445.237 416.306 444.54 417.165 444.54Z" fill="#F1EFFD"/>
<path fill-rule="evenodd" clip-rule="evenodd" d="M433.248 444.54H437.949C438.819 444.54 439.516 445.237 439.516 446.107V450.808C439.516 451.677 438.819 452.377 437.949 452.377H433.248C432.38 452.377 431.682 451.677 431.682 450.808V446.107C431.682 445.237 432.38 444.54 433.248 444.54Z" fill="#F1EFFD"/>
<path fill-rule="evenodd" clip-rule="evenodd" d="M449.32 444.54H454.034C454.891 444.54 455.601 445.237 455.601 446.107V450.808C455.601 451.677 454.891 452.377 454.034 452.377H449.32C448.461 452.377 447.751 451.677 447.751 450.808V446.107C447.751 445.237 448.461 444.54 449.32 444.54Z" fill="#F1EFFD"/>
<path fill-rule="evenodd" clip-rule="evenodd" d="M465.402 444.54H470.106C470.976 444.54 471.672 445.237 471.672 446.107V450.808C471.672 451.677 470.976 452.377 470.106 452.377H465.402C464.536 452.377 463.835 451.677 463.835 450.808V446.107C463.835 445.237 464.536 444.54 465.402 444.54Z" fill="#F1EFFD"/>
<path fill-rule="evenodd" clip-rule="evenodd" d="M444.137 17.6714H448.851C449.708 17.6714 450.418 18.3682 450.418 19.2382V23.9396C450.418 24.8083 449.708 25.5063 448.851 25.5063H444.137C443.28 25.5063 442.57 24.8083 442.57 23.9396V19.2382C442.57 18.3682 443.28 17.6714 444.137 17.6714Z" fill="#F1EFFD"/>
<path fill-rule="evenodd" clip-rule="evenodd" d="M460.222 17.6714H464.92C465.782 17.6714 466.489 18.3682 466.489 19.2382V23.9396C466.489 24.8083 465.782 25.5063 464.92 25.5063H460.222C459.353 25.5063 458.655 24.8083 458.655 23.9396V19.2382C458.655 18.3682 459.353 17.6714 460.222 17.6714Z" fill="#F1EFFD"/>
<path fill-rule="evenodd" clip-rule="evenodd" d="M476.296 17.6714H480.995C481.864 17.6714 482.575 18.3682 482.575 19.2382V23.9396C482.575 24.8083 481.864 25.5063 480.995 25.5063H476.296C475.437 25.5063 474.727 24.8083 474.727 23.9396V19.2382C474.727 18.3682 475.437 17.6714 476.296 17.6714Z" fill="#F1EFFD"/>
<path fill-rule="evenodd" clip-rule="evenodd" d="M492.365 17.6714H497.079C497.936 17.6714 498.646 18.3682 498.646 19.2382V23.9396C498.646 24.8083 497.936 25.5063 497.079 25.5063H492.365C491.508 25.5063 490.798 24.8083 490.798 23.9396V19.2382C490.798 18.3682 491.508 17.6714 492.365 17.6714Z" fill="#F1EFFD"/>
<path fill-rule="evenodd" clip-rule="evenodd" d="M669.846 307.73H674.547C675.406 307.73 676.113 308.427 676.113 309.297V313.998C676.113 314.858 675.406 315.568 674.547 315.568H669.846C668.977 315.568 668.279 314.858 668.279 313.998V309.297C668.279 308.427 668.977 307.73 669.846 307.73Z" fill="#F1EFFD"/>
<path fill-rule="evenodd" clip-rule="evenodd" d="M685.917 307.73H690.629C691.489 307.73 692.199 308.427 692.199 309.297V313.998C692.199 314.858 691.489 315.568 690.629 315.568H685.917C685.058 315.568 684.351 314.858 684.351 313.998V309.297C684.351 308.427 685.058 307.73 685.917 307.73Z" fill="#F1EFFD"/>
<path fill-rule="evenodd" clip-rule="evenodd" d="M701.992 307.73H706.703C707.56 307.73 708.27 308.427 708.27 309.297V313.998C708.27 314.858 707.56 315.568 706.703 315.568H701.992C701.131 315.568 700.422 314.858 700.422 313.998V309.297C700.422 308.427 701.131 307.73 701.992 307.73Z" fill="#F1EFFD"/>
<path fill-rule="evenodd" clip-rule="evenodd" d="M718.074 307.73H722.775C723.642 307.73 724.342 308.427 724.342 309.297V313.998C724.342 314.858 723.642 315.568 722.775 315.568H718.074C717.215 315.568 716.505 314.858 716.505 313.998V309.297C716.505 308.427 717.215 307.73 718.074 307.73Z" fill="#F1EFFD"/>
<path fill-rule="evenodd" clip-rule="evenodd" d="M121.598 470.006C121.575 460.535 122.616 449.632 125.259 437.194C125.281 437.106 125.304 437.003 125.327 436.911C125.453 436.406 125.842 435.446 126.848 435.722C128.199 436.086 139.249 442.297 149.579 452.812C159.908 463.324 159.736 447.514 150.768 441.29C141.811 435.068 132.648 432.449 129.903 430.067C127.146 427.689 127.639 424.967 127.639 424.967C129.777 412.92 131.379 400.576 132.499 388.417L132.511 388.404C132.511 388.404 133.027 385.753 135.543 388.862C138.07 391.985 147.84 402.809 155.447 403.517C163.053 404.237 156.087 392.179 145.346 386.266C134.604 380.35 133.289 379.094 133.392 377.653V377.639C134.079 368.063 134.479 358.694 134.626 349.772C134.626 349.772 135.061 348.169 136.481 349.327C137.889 350.492 148.583 362.712 154.28 361.418C159.976 360.115 154.441 349.701 145.357 346.056C136.274 342.406 134.696 341.306 134.685 339.957C134.593 313.541 132.259 292.264 128.748 283.214C125.098 273.787 148.286 295.111 169.722 329.913C171.564 333.083 171.439 334.901 170.25 338.745C168.968 342.863 167.56 352.15 170.924 349.99C174.287 347.838 174.746 339.67 175.019 339.523C175.224 339.397 175.374 339.523 175.432 339.589C178.943 345.813 182.318 352.368 185.452 359.176C188.677 366.818 184.365 372.035 178.36 379.492C172.137 387.225 173.258 395.439 179.869 391.985C186.482 388.542 189.559 372.469 190.108 372.035C190.612 371.644 190.977 372.226 191.035 372.344C195.405 383.601 198.894 395.373 201.009 407.326C201.455 413.277 196.605 418.205 191.515 426.247C186.39 434.358 190.325 439.245 194.374 438.134C198.413 437.012 201.146 427.14 202.027 426.501C202.839 425.904 203.091 426.406 203.126 426.501C203.583 438.087 202.497 449.689 199.373 461.014C196.628 470.956 193.745 479.454 190.783 486.698H138.289L121.598 470.006Z" fill="#9F9F9F"/>
<path fill-rule="evenodd" clip-rule="evenodd" d="M182.604 486.698C175.718 394.787 152.106 315.178 151.992 314.766C151.661 313.668 150.516 313.038 149.419 313.359C148.32 313.679 147.691 314.834 148.012 315.932C148.125 316.333 171.611 395.473 178.497 486.698H182.604Z" fill="white"/>
<path fill-rule="evenodd" clip-rule="evenodd" d="M225.9 360.307C265.709 336.73 276.703 385.797 268.638 408.025C262.655 424.476 241.446 460.522 226.507 486.698H170.97C178.176 431.694 196.605 377.662 225.9 360.307Z" fill="#9F9F9F"/>
<path fill-rule="evenodd" clip-rule="evenodd" d="M195.153 486.698C215.412 422.394 246.434 369.196 246.595 368.912C247.052 368.121 248.207 367.72 249.157 368.03C250.117 368.339 250.518 369.232 250.06 370.034C249.9 370.307 219.151 423.024 198.985 486.698H195.153Z" fill="white"/>
<path fill-rule="evenodd" clip-rule="evenodd" d="M55.3195 332.176C67.5939 285.777 110.856 311.185 129.434 350.846C139.923 373.233 158.09 432.299 178.532 486.697H126.62L111.189 478.035C75.2804 410.885 50.4118 350.708 55.3195 332.176Z" fill="#F1EFFD"/>
<path fill-rule="evenodd" clip-rule="evenodd" d="M139.26 475.543C99.7951 400.68 79.216 327.989 79.1134 327.626C78.815 326.595 79.4105 325.53 80.4283 325.234C81.458 324.935 82.5331 325.53 82.8195 326.548C82.9341 326.949 105.549 406.79 148.686 484.957L139.26 475.543Z" fill="white"/>
<path fill-rule="evenodd" clip-rule="evenodd" d="M740.426 340.014H789.797V354.975H740.426V340.014Z" fill="#BBBBF6"/>
<path fill-rule="evenodd" clip-rule="evenodd" d="M718.825 357.976H768.211V372.938H718.825V357.976Z" fill="#BBBBF6"/>
<path fill-rule="evenodd" clip-rule="evenodd" d="M770.556 357.976H801.796C802.678 362.847 803.227 367.848 803.409 372.937H770.556V357.976Z" fill="#BBBBF6"/>
<path fill-rule="evenodd" clip-rule="evenodd" d="M740.426 375.922H789.797V390.888H740.426V375.922Z" fill="#BBBBF6"/>
<path fill-rule="evenodd" clip-rule="evenodd" d="M792.154 375.922H803.466C803.48 376.198 803.48 376.474 803.48 376.747C803.48 381.543 803.157 386.266 802.527 390.889H792.154V375.922Z" fill="#BBBBF6"/>
<path fill-rule="evenodd" clip-rule="evenodd" d="M770.556 393.883H802.069C801.223 398.999 800.011 403.998 798.455 408.847H770.556V393.883Z" fill="#BBBBF6"/>
<path d="M693.923 411.616C694.246 411.297 694.772 411.297 695.092 411.616C695.422 411.947 695.422 412.476 695.092 412.796L692.449 415.449C692.128 415.769 691.603 415.769 691.273 415.449C690.95 415.116 690.95 414.59 691.273 414.27L693.923 411.616ZM696.957 417.292C697.415 417.292 697.789 417.669 697.789 418.127C697.789 418.583 697.415 418.962 696.957 418.962H693.213C692.758 418.962 692.381 418.583 692.381 418.127C692.381 417.669 692.758 417.292 693.213 417.292H696.957ZM695.092 423.445C695.422 423.779 695.422 424.303 695.092 424.624C694.772 424.955 694.246 424.955 693.923 424.624L691.273 421.98C690.95 421.65 690.95 421.122 691.273 420.802C691.603 420.481 692.128 420.481 692.449 420.802L695.092 423.445ZM689.43 426.49C689.43 426.945 689.05 427.322 688.595 427.322C688.137 427.322 687.76 426.945 687.76 426.49V422.746C687.76 422.29 688.137 421.913 688.595 421.913C689.05 421.913 689.43 422.29 689.43 422.746V426.49ZM683.274 424.624C682.944 424.955 682.415 424.955 682.095 424.624C681.765 424.303 681.765 423.779 682.095 423.445L684.738 420.802C685.059 420.481 685.587 420.481 685.917 420.802C686.237 421.122 686.237 421.65 685.917 421.98L683.274 424.624ZM680.233 418.962C679.775 418.962 679.398 418.583 679.398 418.127C679.398 417.669 679.775 417.292 680.233 417.292H683.971C684.429 417.292 684.806 417.669 684.806 418.127C684.806 418.583 684.429 418.962 683.971 418.962H680.233ZM682.095 412.796C681.765 412.476 681.765 411.947 682.095 411.616C682.415 411.297 682.944 411.297 683.274 411.616L685.917 414.27C686.237 414.59 686.237 415.116 685.917 415.449C685.587 415.769 685.059 415.769 684.738 415.449L682.095 412.796ZM687.76 409.763C687.76 409.306 688.137 408.928 688.595 408.928C689.05 408.928 689.43 409.306 689.43 409.763V413.503C689.43 413.961 689.05 414.338 688.595 414.338C688.137 414.338 687.76 413.961 687.76 413.503V409.763Z" fill="#8B77E6"/>
<path fill-rule="evenodd" clip-rule="evenodd" d="M776.827 333.561C788.308 370.842 792.599 391.104 798.766 407.864C801.831 398.013 803.48 387.568 803.48 376.747V323.255C803.48 226.004 762.662 287.62 776.827 333.561Z" fill="white"/>
<path fill-rule="evenodd" clip-rule="evenodd" d="M634.497 475.418C625.541 463.472 616.401 447.695 610.944 428.386C601.438 394.799 640.458 432.014 671.24 475.418H634.497Z" fill="white"/>
<path fill-rule="evenodd" clip-rule="evenodd" d="M688.147 475.418C678.539 459.171 669 437.79 667.499 415.287C664.343 367.938 663.437 353.054 654.415 345.389C646.681 338.811 739.956 340.22 779.067 444.037C767.465 457.971 752.356 468.897 735.13 475.418H688.147Z" fill="white"/>
<path fill-rule="evenodd" clip-rule="evenodd" d="M667.785 343.743C703.098 375.867 730.872 423.366 751.235 467.696C750.264 468.269 749.278 468.828 748.295 469.364C727.43 423.846 698.73 374.975 662.1 343.194C663.783 343.274 665.694 343.456 667.785 343.743Z" fill="#9F9F9F"/>
<path fill-rule="evenodd" clip-rule="evenodd" d="M767.97 291.725C775.763 310.909 787.245 353.934 800.823 400.245C795.29 424.362 781.401 445.399 762.423 460.111C729.525 413.136 700.879 359.771 690.172 317.453C668.634 232.295 735.644 212 767.97 291.725Z" fill="#9F9F9F"/>
<path fill-rule="evenodd" clip-rule="evenodd" d="M781.377 441.152C735.827 361.496 714.608 268.035 714.515 267.633C714.298 266.717 714.87 265.802 715.787 265.597C716.699 265.381 717.616 265.95 717.832 266.866C717.925 267.267 738.847 359.405 783.572 438.225C782.852 439.209 782.119 440.194 781.377 441.152Z" fill="white"/>
<path fill-rule="evenodd" clip-rule="evenodd" d="M737.372 474.536C735.688 466.802 733.07 458.451 729.065 450.029C713.885 418.161 675.932 405.759 665.133 410.61C656.31 414.58 638.547 439.153 651.808 475.418H735.129C735.884 475.132 736.627 474.845 737.372 474.536Z" fill="#9F9F9F"/>
<path fill-rule="evenodd" clip-rule="evenodd" d="M715.373 475.418C717.306 470.212 721.3 458.773 721.823 451.861C721.87 451.323 721.469 450.855 720.933 450.821C720.405 450.774 719.937 451.175 719.893 451.713C719.413 458.153 715.75 468.793 713.784 474.159C709.345 465.432 703.933 456.278 697.358 447.023C700.821 433.65 700.422 423.752 700.422 423.718C700.4 423.182 699.955 422.771 699.415 422.781C698.877 422.805 698.467 423.25 698.479 423.788C698.489 423.822 698.844 432.701 695.882 444.974C688.41 434.725 679.501 424.372 668.849 414.372C668.071 413.641 666.837 413.677 666.105 414.465C665.373 415.243 665.42 416.466 666.195 417.198C671.388 422.071 676.148 427.026 680.529 432.014C676.595 431.293 670.587 430.536 664.629 431.134C664.104 431.189 663.714 431.657 663.757 432.196C663.817 432.724 664.285 433.111 664.822 433.054C671.994 432.344 679.26 433.66 682.599 434.405C689.336 442.287 695.126 450.215 700.089 457.995C693.158 457.329 676.137 456.21 659.617 459.241C659.092 459.343 658.749 459.847 658.839 460.373C658.944 460.899 659.447 461.242 659.974 461.151C677.623 457.902 695.904 459.48 701.407 460.087C704.653 465.293 707.536 470.43 710.086 475.418H715.373Z" fill="white"/>
<path fill-rule="evenodd" clip-rule="evenodd" d="M647.225 69.4008H652.578C653.561 69.4008 654.362 70.2015 654.362 71.186V76.5296C654.362 77.5128 653.561 78.3135 652.578 78.3135H647.225C646.239 78.3135 645.44 77.5128 645.44 76.5296V71.186C645.44 70.2015 646.239 69.4008 647.225 69.4008Z" fill="white"/>
<path fill-rule="evenodd" clip-rule="evenodd" d="M665.503 69.4008H670.845C671.828 69.4008 672.63 70.2015 672.63 71.186V76.5296C672.63 77.5128 671.828 78.3135 670.845 78.3135H665.503C664.518 78.3135 663.718 77.5128 663.718 76.5296V71.186C663.718 70.2015 664.518 69.4008 665.503 69.4008Z" fill="white"/>
<path fill-rule="evenodd" clip-rule="evenodd" d="M683.771 69.4008H689.126C690.109 69.4008 690.907 70.2015 690.907 71.186V76.5296C690.907 77.5128 690.109 78.3135 689.126 78.3135H683.771C682.798 78.3135 681.999 77.5128 681.999 76.5296V71.186C681.999 70.2015 682.798 69.4008 683.771 69.4008Z" fill="white"/>
<path fill-rule="evenodd" clip-rule="evenodd" d="M702.052 69.4008H707.407C708.379 69.4008 709.179 70.2015 709.179 71.186V76.5296C709.179 77.5128 708.379 78.3135 707.407 78.3135H702.052C701.069 78.3135 700.267 77.5128 700.267 76.5296V71.186C700.267 70.2015 701.069 69.4008 702.052 69.4008Z" fill="white"/>
<path fill-rule="evenodd" clip-rule="evenodd" d="M16.2323 524.43C12.3251 524.43 9.11459 521.235 9.11459 517.311V516.725C9.11459 512.801 12.3251 509.606 16.2323 509.606C20.1528 509.606 23.3513 512.801 23.3513 516.725V517.311C23.3513 521.235 20.1528 524.43 16.2323 524.43ZM10.6719 476.388H839.313C845.192 476.388 850 481.183 850 487.061C850 492.936 845.192 497.745 839.313 497.745H803.297C800.032 497.745 797.368 500.41 797.368 503.675C797.368 506.93 800.032 509.606 803.297 509.606H816.471C820.553 509.606 823.888 512.942 823.888 517.023C823.888 521.098 820.553 524.43 816.471 524.43H34.7052C30.6195 524.43 27.2865 521.098 27.2865 517.023C27.2865 512.942 30.6195 509.606 34.7052 509.606H45.0747C48.3412 509.606 51.0068 506.93 51.0068 503.675C51.0068 500.41 48.3412 497.745 45.0747 497.745H10.6719C4.79708 497.745 0 492.936 0 487.061C0 481.183 4.81174 476.388 10.6719 476.388Z" fill="#C9C9C9"/>
</svg>
