<svg width="18" height="17" viewBox="0 0 18 17" fill="none" xmlns="http://www.w3.org/2000/svg">
<path d="M17.0323 14.3487H0.289818C0.187503 14.3487 0.10379 14.4324 0.10379 14.5347V15.9299C0.10379 16.0323 0.187503 16.116 0.289818 16.116H17.0323C17.1346 16.116 17.2183 16.0323 17.2183 15.9299V14.5347C17.2183 14.4324 17.1346 14.3487 17.0323 14.3487ZM5.75438 3.78465H7.47281V11.6513C7.47281 11.7536 7.55653 11.8373 7.65884 11.8373H9.05405C9.15637 11.8373 9.24008 11.7536 9.24008 11.6513V3.78465H10.9632C11.119 3.78465 11.205 3.6056 11.1097 3.48468L8.50527 0.187343C8.48787 0.165109 8.46563 0.147127 8.44025 0.13476C8.41487 0.122394 8.38701 0.115967 8.35877 0.115967C8.33054 0.115967 8.30267 0.122394 8.27729 0.13476C8.25191 0.147127 8.22968 0.165109 8.21227 0.187343L5.60789 3.48236C5.51255 3.6056 5.59858 3.78465 5.75438 3.78465V3.78465Z" fill="white"/>
</svg>
