<svg width="13" height="13" viewBox="0 0 13 13" fill="none" xmlns="http://www.w3.org/2000/svg">
<path d="M5.99764 0.472168H7.0021C7.09139 0.472168 7.13603 0.516811 7.13603 0.606097V12.3918C7.13603 12.4811 7.09139 12.5257 7.0021 12.5257H5.99764C5.90835 12.5257 5.86371 12.4811 5.86371 12.3918V0.606097C5.86371 0.516811 5.90835 0.472168 5.99764 0.472168Z" fill="#1d1c20"/>
<path d="M0.875262 5.86279H12.1253C12.2145 5.86279 12.2592 5.90744 12.2592 5.99672V7.00119C12.2592 7.09047 12.2145 7.13511 12.1253 7.13511H0.875262C0.785976 7.13511 0.741333 7.09047 0.741333 7.00119V5.99672C0.741333 5.90744 0.785976 5.86279 0.875262 5.86279Z" fill="#1d1c20"/>
</svg>
