<svg width="13" height="13" viewBox="0 0 13 13" fill="none" xmlns="http://www.w3.org/2000/svg">
<path d="M5.9977 0.472168H7.00216C7.09145 0.472168 7.13609 0.516811 7.13609 0.606097V12.3918C7.13609 12.4811 7.09145 12.5257 7.00216 12.5257H5.9977C5.90841 12.5257 5.86377 12.4811 5.86377 12.3918V0.606097C5.86377 0.516811 5.90841 0.472168 5.9977 0.472168Z" fill="white"/>
<path d="M0.875262 5.86279H12.1253C12.2145 5.86279 12.2592 5.90744 12.2592 5.99672V7.00119C12.2592 7.09047 12.2145 7.13511 12.1253 7.13511H0.875262C0.785976 7.13511 0.741333 7.09047 0.741333 7.00119V5.99672C0.741333 5.90744 0.785976 5.86279 0.875262 5.86279Z" fill="white"/>
</svg>
