<svg width="1" height="1" viewBox="0 0 1 1" fill="none" xmlns="http://www.w3.org/2000/svg">
<path d="M0.968239 0.485566L0.0346455 0.0174858C0.0308508 0.0155885 0.0264981 0.0151421 0.0223687 0.0161465C0.0177856 0.0172796 0.0138382 0.0201825 0.0113908 0.0242196C0.00894332 0.0282568 0.00819535 0.0330993 0.00931061 0.0376867L0.105516 0.430767C0.106967 0.436682 0.111319 0.441481 0.117123 0.443379L0.281967 0.499964L0.117235 0.556548C0.111431 0.558557 0.107078 0.563245 0.105739 0.56916L0.00931061 0.962798C0.00830615 0.966928 0.00875258 0.971281 0.0106499 0.974964C0.0150026 0.983781 0.0257169 0.987352 0.0346455 0.982999L0.968239 0.517597C0.971699 0.515923 0.974489 0.513022 0.976275 0.509673C0.980628 0.500745 0.977056 0.49003 0.968239 0.485566ZM0.119355 0.850968L0.175494 0.621504L0.504958 0.508446C0.507525 0.507553 0.509645 0.505544 0.510538 0.502865C0.512101 0.498178 0.509645 0.493156 0.504958 0.491481L0.175494 0.378535L0.119578 0.149964L0.820471 0.501414L0.119355 0.850968Z" fill="#007EFF" fill-opacity="0.4"/>
</svg>
