<svg width="1" height="1" viewBox="0 0 1 1" fill="none" xmlns="http://www.w3.org/2000/svg">
<path d="M0.968117 0.485566L0.0345234 0.0174858C0.0307287 0.0155885 0.026376 0.0151421 0.0222466 0.0161465C0.0176635 0.0172796 0.0137161 0.0201825 0.0112687 0.0242196C0.00882125 0.0282568 0.00807328 0.0330993 0.00918854 0.0376867L0.105394 0.430767C0.106845 0.436682 0.111197 0.441481 0.117001 0.443379L0.281845 0.499964L0.117113 0.556548C0.111309 0.558557 0.106956 0.563245 0.105617 0.56916L0.00918854 0.962798C0.00818408 0.966928 0.00863051 0.971281 0.0105278 0.974964C0.0148805 0.983781 0.0255948 0.987352 0.0345234 0.982999L0.968117 0.517597C0.971577 0.515923 0.974367 0.513022 0.976153 0.509673C0.980506 0.500745 0.976934 0.49003 0.968117 0.485566ZM0.119233 0.850968L0.175372 0.621504L0.504836 0.508446C0.507403 0.507553 0.509523 0.505544 0.510416 0.502865C0.511979 0.498178 0.509523 0.493156 0.504836 0.491481L0.175372 0.378535L0.119456 0.149964L0.820349 0.501414L0.119233 0.850968V0.850968Z" fill="#007EFF"/>
</svg>
