<svg width="21" height="21" viewBox="0 0 21 21" fill="none" xmlns="http://www.w3.org/2000/svg">
<path d="M1.84082 9.84548C1.86463 8.80501 2.07892 7.79549 2.48129 6.8455C2.8932 5.86931 3.48367 4.99551 4.23605 4.24075C4.98842 3.48599 5.86461 2.89552 6.84079 2.48362C7.85031 2.05743 8.92173 1.84076 10.0289 1.84076C11.136 1.84076 12.2074 2.05743 13.2146 2.48362C14.188 2.89467 15.0719 3.49151 15.8169 4.24075C16.0526 4.47646 16.2741 4.72646 16.4788 4.98836L15.0455 6.1074C15.0171 6.12934 14.9956 6.15884 14.9832 6.1925C14.9709 6.22617 14.9683 6.26263 14.9757 6.2977C14.9832 6.33277 15.0004 6.36502 15.0254 6.39075C15.0504 6.41647 15.0821 6.43462 15.1169 6.44312L19.3002 7.46692C19.4193 7.49549 19.536 7.40502 19.536 7.28359L19.555 2.97647C19.555 2.81695 19.3717 2.72647 19.2479 2.82647L17.905 3.87647C16.0741 1.53362 13.2265 0.03125 10.0265 0.03125C4.57176 0.03125 0.13369 4.40265 0.0313095 9.83595C0.0306741 9.86136 0.0351312 9.88665 0.0444186 9.91031C0.0537059 9.93397 0.0676354 9.95553 0.0853864 9.97373C0.103137 9.99192 0.124351 10.0064 0.147776 10.0163C0.171202 10.0261 0.196365 10.0312 0.221785 10.0312H1.65035C1.75511 10.0312 1.83844 9.94786 1.84082 9.84548ZM19.8407 10.0312H18.4122C18.3074 10.0312 18.2241 10.1145 18.2217 10.2169C18.1979 11.2574 17.9836 12.2669 17.5812 13.2169C17.1693 14.1931 16.5788 15.0693 15.8265 15.8216C15.0671 16.5842 14.1642 17.1888 13.17 17.6007C12.1757 18.0127 11.1098 18.2237 10.0336 18.2216C8.95781 18.2236 7.89225 18.0126 6.89841 17.6007C5.90458 17.1888 5.00215 16.5841 4.24319 15.8216C4.00748 15.5859 3.78605 15.3359 3.58129 15.074L5.01461 13.955C5.04297 13.933 5.06456 13.9035 5.0769 13.8699C5.08925 13.8362 5.09183 13.7998 5.08437 13.7647C5.07691 13.7296 5.0597 13.6974 5.03473 13.6716C5.00975 13.6459 4.97802 13.6278 4.94318 13.6193L0.759877 12.5955C0.64083 12.5669 0.524164 12.6574 0.524164 12.7788L0.507497 17.0883C0.507497 17.2478 0.69083 17.3383 0.814638 17.2383L2.15749 16.1883C3.98843 18.5288 6.83603 20.0311 10.036 20.0311C15.4931 20.0311 19.9288 15.6573 20.0312 10.2264C20.0318 10.201 20.0274 10.1757 20.0181 10.1521C20.0088 10.1284 19.9949 10.1068 19.9771 10.0887C19.9594 10.0705 19.9382 10.056 19.9147 10.0461C19.8913 10.0363 19.8661 10.0312 19.8407 10.0312V10.0312Z" fill="#1D1C20"/>
</svg>
